<svg width="98" height="87" viewBox="0 0 98 87" fill="none" xmlns="http://www.w3.org/2000/svg">
<path d="M69.7632 78.959C69.5896 78.671 69.4738 78.4117 69.3002 78.1813C68.7794 77.4612 68.2296 76.7411 67.7087 75.9922C66.667 74.5231 65.6253 73.0253 64.5836 71.5275C63.1078 69.4535 61.6031 67.3796 60.0984 65.3057C59.7223 64.7584 59.3461 64.2111 58.941 63.6927C58.5648 63.2318 58.3333 63.7215 58.0439 63.8655C57.7835 64.0095 57.8124 64.1823 57.9861 64.4128C58.4201 65.0177 58.8252 65.6225 59.2593 66.2274C60.9665 68.6182 62.7027 71.0378 64.4389 73.4286C65.1044 74.3791 65.7989 75.3008 66.4644 76.2226C67.1589 77.1731 67.8245 78.1525 68.49 79.103C68.5768 79.2183 68.6636 79.3335 68.7794 79.3623C68.9819 79.4199 69.2134 79.4487 69.3581 79.3623C69.5606 79.3335 69.6185 79.1318 69.7632 78.959Z" fill="white"/>
<path d="M86.9804 51.3356C87.0961 51.2203 87.3855 51.0475 87.4434 50.8459C87.4723 50.6731 87.2698 50.4138 87.0961 50.2698C86.9804 50.1546 86.7778 50.1258 86.6042 50.097C85.9097 49.9817 85.2442 49.8953 84.5497 49.7801C83.4501 49.5785 82.3216 49.3769 81.222 49.204C80.1225 49.0312 78.9939 48.8584 77.8654 48.6855C77.0263 48.5415 76.216 48.4263 75.3769 48.2823C74.2773 48.0807 73.2066 47.879 72.1071 47.7062C71.0943 47.5334 70.1104 47.4181 69.0977 47.2453C68.6926 47.1589 68.5189 47.2453 68.4611 47.6774C68.4032 48.023 68.49 48.1959 68.8083 48.3111C69.0687 48.3975 69.3292 48.4839 69.5896 48.5127C73.5539 49.1464 77.5471 49.7801 81.5403 50.4426C82.6399 50.6154 83.7106 50.8747 84.8102 51.0763C85.4757 51.1051 86.1702 51.1915 86.9804 51.3356Z" fill="white"/>
<path d="M8.07069 69.3959C8.38899 69.2231 8.67836 69.0791 8.93879 68.8775C9.83582 68.2438 10.7328 67.5812 11.6588 66.9475C13.7133 65.5073 15.7678 64.0671 17.8223 62.5981C19.4717 61.4171 21.121 60.2361 22.7994 59.0839C23.4649 58.6231 23.4938 58.5655 23.0019 57.903C22.8283 57.6725 22.6836 57.6725 22.4811 57.8165C21.9313 58.2198 21.3525 58.5943 20.7738 58.9975C19.3849 60.0057 17.967 61.0138 16.578 61.9932C15.1023 63.0301 13.5976 64.0671 12.0929 65.1041C10.9643 65.8818 9.86475 66.6883 8.76517 67.4948C8.41793 67.7541 8.09963 68.0133 7.81026 68.3014C7.69452 68.4454 7.66558 68.7334 7.69452 68.9639C7.69452 69.1655 7.89707 69.2519 8.07069 69.3959Z" fill="white"/>
<path d="M35.9944 85.9873C36.0523 86.477 35.9654 86.9667 36.4574 86.9955C36.9493 87.0531 36.9782 86.5634 37.094 86.2177C37.094 86.1601 37.1229 86.1313 37.1229 86.0737C37.3833 84.5759 37.6438 83.1069 37.9042 81.609C38.2514 79.5927 38.5697 77.5764 38.917 75.5889C39.3221 73.2557 39.6983 70.9226 40.1034 68.6182C40.1612 68.2726 39.9587 68.1861 39.6983 68.1861C39.4378 68.1861 39.0616 67.8693 38.9748 68.3878C38.8591 68.9351 38.7723 69.4535 38.6855 70.0008C38.5408 70.9226 38.425 71.8443 38.2804 72.7661C38.0778 73.9182 37.8174 75.0416 37.6148 76.165C37.2676 78.0661 36.9493 79.9672 36.6599 81.8683C36.3995 83.2797 36.1969 84.6911 35.9944 85.9873Z" fill="white"/>
<path d="M64.6704 29.3577C64.8151 29.2713 64.9019 29.2137 64.9598 29.1561C65.7121 28.6088 66.4934 28.0903 67.2458 27.5431C69.4739 25.9588 71.7309 24.3458 73.959 22.7615C75.4637 21.6958 76.9684 20.6588 78.4731 19.6218C78.8782 19.3338 79.2833 19.0169 79.6595 18.7289C79.891 18.5561 80.0357 18.2968 79.8331 18.0376C79.6595 17.7784 79.3701 17.6631 79.0808 17.836C78.8203 17.98 78.5599 18.0952 78.3284 18.268C77.4025 18.9305 76.4765 19.6218 75.5505 20.2843C73.4382 21.7822 71.2969 23.2512 69.1845 24.749C67.5641 25.9012 65.9436 27.0534 64.3521 28.2056C64.2364 28.292 64.0628 28.5224 64.1206 28.6088C64.2653 28.8393 64.4679 29.0697 64.6704 29.3577Z" fill="white"/>
<path d="M0.778699 35.6659C0.431462 35.7235 0.142097 35.7811 0.0263513 36.1556C-0.0893946 36.5013 0.19997 36.6453 0.431462 36.7605C0.662953 36.8757 0.952318 36.9621 1.21275 37.0197C2.31233 37.1926 3.41192 37.3366 4.5115 37.5094C6.73961 37.8839 8.96772 38.2871 11.1958 38.6616C12.0639 38.8056 12.9609 38.9208 13.829 39.0649C15.218 39.2953 16.578 39.5257 17.967 39.785C18.2274 39.8426 18.3721 39.785 18.4299 39.4969C18.5746 38.6904 18.5746 38.6904 17.7355 38.5176C17.5908 38.4888 17.4461 38.4888 17.3014 38.46C16.2018 38.3159 15.1312 38.2007 14.0316 37.9991C12.0929 37.6822 10.1541 37.279 8.21537 36.9621C7.17366 36.7893 6.13195 36.7029 5.11917 36.5013C3.67235 36.2708 2.22552 35.954 0.778699 35.6659Z" fill="white"/>
<path d="M51.5043 0.697294C51.5043 0.466859 51.4753 0.0635962 51.0124 0.00598733C50.5494 -0.0516216 50.4336 0.322836 50.3758 0.697294C50.0285 2.77121 49.6523 4.87394 49.3051 6.94786C49.0736 8.41689 48.8421 9.85711 48.6106 11.3261C48.2345 13.5441 47.8583 15.762 47.511 17.98C47.4821 18.0952 47.5689 18.3256 47.6557 18.3832C48.0898 18.6713 48.5528 18.4696 48.6396 17.9224C48.9579 16.0213 49.3051 14.1202 49.5945 12.2191C49.7102 11.499 49.797 10.7789 49.9128 10.0875C50.3468 7.63917 50.7809 5.19079 51.186 2.74241C51.3307 2.10871 51.3885 1.47501 51.5043 0.697294Z" fill="white"/>
<path d="M18.5167 7.55276C17.938 7.55276 17.7065 7.84081 17.8801 8.24407C18.0537 8.61853 18.2563 8.99299 18.5167 9.33864C19.5874 10.8365 20.7159 12.3343 21.7865 13.8321C23.87 16.7414 25.9534 19.6506 28.0368 22.5887C28.3841 23.0784 28.6155 22.8479 28.9338 22.6463C29.2811 22.4159 29.2522 22.2142 29.0207 21.8974C28.1526 20.7164 27.2845 19.5066 26.4164 18.2968C25.3457 16.8278 24.2751 15.3588 23.2044 13.8897C21.7865 11.9022 20.3976 9.91473 18.9797 7.95603C18.864 7.7544 18.6325 7.63918 18.5167 7.55276Z" fill="white"/>
<path d="M73.8143 74.0046C73.9879 73.8894 74.1905 73.8318 74.2773 73.7166C74.3641 73.5726 74.3641 73.3421 74.3062 73.1981C74.2194 72.9677 74.0458 72.7661 73.8722 72.5644C72.57 71.2106 71.2679 69.8856 69.9657 68.5606C67.4483 65.997 64.9019 63.4334 62.3844 60.8698C62.1529 60.6394 61.9793 60.4954 61.6899 60.8122C61.198 61.3307 61.1691 61.3307 61.5742 61.734C62.4423 62.5693 63.3103 63.4334 64.1495 64.2975C65.5095 65.6802 66.8406 67.0916 68.1717 68.4454C68.9819 69.2807 69.8211 70.0584 70.6313 70.8938C71.5283 71.7867 72.3964 72.7373 73.2645 73.6302C73.4092 73.7742 73.5828 73.8606 73.8143 74.0046Z" fill="white"/>
<path d="M13.771 73.947C13.8868 73.8606 14.1472 73.7454 14.3497 73.5726C14.9285 73.0541 15.4493 72.5068 16.0281 71.9595C17.1566 70.8938 18.2851 69.7992 19.4136 68.7334C20.9183 67.2932 22.3941 65.853 23.8988 64.4128C24.6801 63.6639 25.4324 62.8861 26.1848 62.1372C26.2716 62.0508 26.3584 61.878 26.3294 61.7628C26.2137 61.2443 25.5771 61.0715 25.2009 61.4171C25.143 61.4747 25.0562 61.5611 24.9984 61.6187C23.8409 62.7709 22.6834 63.9519 21.4971 65.0753C20.9762 65.5937 20.3975 66.0546 19.8477 66.5731C18.4587 67.9269 17.0698 69.2807 15.6808 70.6345C14.9863 71.3258 14.2629 71.9883 13.5685 72.6796C13.4238 72.8237 13.2791 73.0253 13.1923 73.2269C12.9897 73.6014 13.2502 73.947 13.771 73.947Z" fill="white"/>
<path d="M43.0259 10.8653C43.0259 13.0832 43.0259 15.3012 43.0259 17.5191C43.0259 17.6919 43.0548 17.9512 43.1706 18.0088C43.6336 18.3256 44.1833 18.0088 44.1833 17.4615C44.1833 13.3425 44.1833 9.19462 44.1833 5.07559C44.1833 4.78754 44.2412 4.4995 44.2412 4.21145C44.2702 3.2033 44.2702 2.19514 44.2702 1.18699C44.2702 0.841332 44.0965 0.582092 43.7204 0.582092C43.3153 0.582092 43.1706 0.841332 43.0838 1.18699C43.0838 1.24459 43.0838 1.3022 43.0548 1.38862C43.0259 2.5696 42.968 3.75058 42.968 4.96037C43.0259 6.91907 43.0259 8.87777 43.0259 10.8653Z" fill="white"/>
<path d="M74.4508 13.4289C74.2193 13.2848 74.0167 13.0544 73.8142 13.0832C73.5538 13.0832 73.2933 13.256 73.0908 13.4289C72.2227 14.2354 71.3835 15.0995 70.5154 15.906C70.0814 16.3381 69.5895 16.7126 69.1554 17.1158C67.6218 18.6425 66.1171 20.1691 64.5835 21.6957C63.5417 22.7327 62.5 23.7985 61.4294 24.8354C60.9953 25.2387 61.4004 25.4403 61.603 25.6996C61.8634 26.0164 62.037 25.7572 62.2107 25.5843C63.2524 24.5474 64.2941 23.4816 65.3647 22.4447C66.9273 20.918 68.5188 19.3914 70.0814 17.8936C70.5733 17.4039 71.0942 16.943 71.5861 16.4533C72.3674 15.7044 73.1776 14.9555 73.9589 14.1778C74.1614 13.9762 74.2482 13.7457 74.4508 13.4289Z" fill="white"/>
<path d="M13.0188 13.5441C13.2503 13.9186 13.4239 14.2642 13.7133 14.5523C15.1601 16.0501 16.6359 17.5479 18.1116 19.017C18.5746 19.4778 19.0376 19.9099 19.4716 20.3708C20.1082 21.0045 20.7159 21.667 21.3525 22.3007C22.4232 23.3664 23.4938 24.3746 24.5644 25.4403C25.0274 25.9012 24.9985 25.9012 25.4325 25.4692C25.693 25.2099 25.664 25.0371 25.4325 24.7778C24.6513 24.0001 23.841 23.2224 23.0598 22.4447C21.9602 21.3213 20.9185 20.1979 19.8189 19.0746C18.3431 17.5479 16.8384 15.9925 15.3337 14.4659C14.9286 14.0338 14.4946 13.6305 14.0316 13.2273C13.8869 13.112 13.5975 13.0832 13.4239 13.112C13.2792 13.1408 13.1924 13.3713 13.0188 13.5441Z" fill="white"/>
<path d="M74.4219 42.7518C72.7725 42.7518 71.0942 42.7806 69.4448 42.7518C69.0108 42.7518 68.8372 42.8382 68.8372 43.2991C68.8372 43.76 69.0108 43.8752 69.4448 43.8752C73.1198 43.904 76.7658 43.9616 80.4407 44.0192C82.2347 44.048 84.0288 44.0192 85.8229 44.0192C86.0544 44.0192 86.3148 44.048 86.4884 43.9328C86.662 43.8464 86.8067 43.616 86.8356 43.4431C86.8356 43.2991 86.662 43.0975 86.5173 42.9823C86.4016 42.8958 86.199 42.8958 86.0544 42.8958C83.7394 42.8382 81.4245 42.7806 79.0807 42.7518C77.4892 42.723 75.9555 42.7518 74.4219 42.7518Z" fill="white"/>
<path d="M44.5307 70.4905C44.5596 70.4905 44.5886 70.4905 44.6175 70.4905C44.6175 69.9432 44.6175 69.3959 44.6175 68.8486C44.6175 68.503 44.4149 68.4454 44.1256 68.4742C43.8651 68.503 43.5179 68.359 43.489 68.8486C43.4311 70.6345 43.3153 72.3916 43.3153 74.1775C43.2864 76.9139 43.3153 79.6503 43.2864 82.3867C43.2864 82.646 43.2285 82.934 43.2285 83.1933C43.1996 84.0862 43.1417 84.9503 43.1128 85.8433C43.1128 86.1889 43.3443 86.4194 43.6915 86.4194C44.0677 86.4194 44.2413 86.1889 44.2703 85.8433C44.2992 85.728 44.2992 85.6128 44.2992 85.4976C44.3281 84.1438 44.3571 82.7612 44.386 81.4074C44.4439 77.778 44.4728 74.1199 44.5307 70.4905Z" fill="white"/>
<path d="M12.9608 44.2784C12.9608 44.2496 12.9608 44.2496 12.9608 44.2784C14.5234 44.2784 16.0859 44.2784 17.6485 44.2496C17.8221 44.2496 18.0825 44.192 18.1404 44.0768C18.4298 43.6447 18.1115 43.1551 17.5906 43.1551C14.0604 43.0974 10.5591 43.0398 7.02882 43.011C5.61093 42.9822 4.19304 43.011 2.77516 43.011C2.2543 43.011 1.70451 43.011 1.18365 43.011C0.865349 43.011 0.60492 43.1551 0.575984 43.5007C0.547047 43.8464 0.749603 44.048 1.0679 44.1056C1.15471 44.1344 1.27046 44.1344 1.35727 44.1344C3.87474 44.192 6.42115 44.2496 8.93862 44.2784C10.2986 44.2784 11.6297 44.2784 12.9608 44.2784Z" fill="white"/>
<path d="M47.974 45.3442C47.9162 45.373 47.8872 45.373 47.8293 45.4018C47.7136 45.2866 47.5978 45.1714 47.511 45.0274C46.614 43.76 45.717 42.5214 44.791 41.2828C44.6463 41.0811 44.357 40.9659 44.1255 40.9083C43.8361 40.8507 43.5178 40.8795 43.1995 40.9083C43.0548 40.9371 42.9391 41.0235 42.7944 41.11C42.8812 41.254 42.9391 41.4556 43.0548 41.5132C43.4021 41.6572 43.4889 41.9165 43.4889 42.2909C43.4889 43.7312 43.4889 45.1714 43.4889 46.6404C43.4889 47.0437 43.431 47.3317 42.997 47.4757C42.8812 47.5045 42.7365 47.735 42.7655 47.7926C42.8233 47.9078 42.968 48.0518 43.1127 48.0518C43.4889 48.0806 43.894 48.0806 44.2702 48.0518C44.4148 48.0518 44.5595 47.9078 44.7042 47.8214C44.6174 47.7062 44.5306 47.5045 44.4148 47.4469C44.0676 47.3029 44.0097 47.0437 44.0097 46.7268C44.0097 45.5746 44.0097 44.4225 44.0097 43.2703C44.0097 43.1263 44.0387 42.9822 44.0387 42.8094C44.2991 42.9246 44.4438 43.0975 44.5595 43.2703C45.6012 44.7393 46.6429 46.2083 47.7136 47.6486C47.8293 47.8214 48.0608 47.879 48.2345 47.9942C48.3213 47.7926 48.4659 47.6198 48.4659 47.4181C48.4659 45.7475 48.4659 44.0768 48.4659 42.4062C48.4659 41.9741 48.5238 41.6572 48.9868 41.5132C49.1025 41.4844 49.1604 41.2828 49.2472 41.1676C49.1025 41.0811 48.9868 40.9659 48.8421 40.9659C48.437 40.9371 48.0319 40.9371 47.6268 40.9659C47.4821 40.9659 47.3374 41.11 47.1927 41.1676C47.2796 41.3116 47.3664 41.4268 47.4821 41.5708C47.6268 41.7148 47.9162 41.8589 47.9162 42.0029C48.003 43.0687 47.974 44.2208 47.974 45.3442Z" fill="white"/>
<path d="M37.1806 46.8421C37.1517 46.8421 37.1517 46.8421 37.1806 46.8421C37.1806 47.0725 37.1517 47.3317 37.1806 47.5622C37.2096 48.0518 37.3832 48.1959 37.8172 47.9942C38.1355 47.8502 38.4249 47.8502 38.7432 47.9942C38.9747 48.0807 39.2351 48.1383 39.4956 48.1671C40.7109 48.3687 41.8973 47.7062 42.0998 46.6116C42.3603 45.2002 41.9841 44.1632 40.5373 43.7888C39.9007 43.6448 39.2641 43.4719 38.6275 43.2415C37.8751 42.9535 37.7304 42.2333 38.2802 41.6573C39.0036 40.8795 40.4794 41.11 40.9424 42.0317C41.0003 42.1757 41.0581 42.3486 41.1739 42.4638C41.2607 42.5502 41.4343 42.6654 41.579 42.6366C41.6658 42.6366 41.7526 42.435 41.7815 42.291C41.8105 41.8877 41.8105 41.4556 41.7526 41.0524C41.7237 40.9371 41.4343 40.7067 41.3475 40.7355C40.8845 40.9948 40.4505 40.7931 39.9875 40.7067C38.6275 40.4475 37.5279 41.11 37.2674 42.3198C37.007 43.5295 37.6436 44.4801 38.8879 44.8257C39.5534 44.9986 40.219 45.1714 40.8266 45.4018C41.4054 45.6323 41.6079 46.1508 41.4054 46.7556C41.1739 47.3893 40.653 47.6486 40.0453 47.6774C39.4087 47.7062 38.7432 47.6198 38.3381 46.9861C38.1066 46.6404 37.9909 46.2372 37.7594 45.8627C37.7015 45.7475 37.4989 45.6611 37.3832 45.6611C37.3253 45.6611 37.2096 45.8627 37.1806 45.9779C37.1517 46.2948 37.1806 46.5828 37.1806 46.8421Z" fill="white"/>
<path d="M81.0194 67.8117C80.8747 67.5524 80.8169 67.3796 80.7011 67.2932C80.3249 66.9763 79.9488 66.6883 79.5437 66.4291C78.5309 65.7666 77.4892 65.1041 76.4764 64.4416C74.9717 63.4622 73.467 62.454 71.9623 61.4747C71.644 61.2731 71.2968 61.1867 71.0074 61.5323C70.8048 61.7915 70.9495 62.1948 71.3546 62.454C72.6278 63.3182 73.901 64.1535 75.1743 65.0176C76.65 65.997 78.1258 66.9763 79.6015 67.9557C79.833 68.1285 80.1513 68.2437 80.4407 68.2437C80.6143 68.2437 80.8169 67.9845 81.0194 67.8117Z" fill="white"/>
<path d="M76.7369 37.4806C77.0552 37.423 77.4603 37.3654 77.8365 37.279C78.7336 37.0773 79.6306 36.8469 80.5276 36.6741C82.611 36.2708 84.6655 35.8964 86.7489 35.4931C86.8936 35.4643 87.0673 35.4067 87.1541 35.3203C87.2987 35.1474 87.4434 34.9458 87.4145 34.773C87.3856 34.629 87.1251 34.4561 86.9515 34.4273C86.5175 34.3985 86.0545 34.4273 85.6204 34.5138C82.6978 35.0898 79.7753 35.6659 76.8527 36.2708C76.5923 36.3284 76.3029 36.4148 76.1003 36.5589C75.9557 36.6453 75.811 36.9045 75.8399 37.0773C75.8688 37.2214 76.1003 37.3654 76.274 37.4518C76.3608 37.4806 76.5054 37.4806 76.7369 37.4806Z" fill="white"/>
<path d="M6.97102 18.6425C6.85527 18.8153 6.62378 18.9881 6.62378 19.161C6.65272 19.4202 6.7974 19.7371 6.99995 19.8811C7.54975 20.3131 8.12848 20.6588 8.7072 21.0333C10.2698 22.0702 11.8323 23.0784 13.3949 24.1153C14.1473 24.605 14.8707 25.0947 15.623 25.5556C15.9124 25.7284 16.2596 25.7572 16.4911 25.4691C16.7226 25.1523 16.5201 24.8931 16.3175 24.6626C16.2017 24.5474 16.0281 24.461 15.8834 24.3458C14.3498 23.3376 12.8162 22.3295 11.2825 21.3213C10.0383 20.486 8.79401 19.6794 7.52081 18.8441C7.37613 18.7577 7.23145 18.7289 6.97102 18.6425Z" fill="white"/>
<path d="M62.2976 16.3669C62.3844 16.3093 62.587 16.2517 62.7317 16.1077C62.9342 15.9061 63.0789 15.7044 63.2236 15.474C64.5547 13.4577 65.8858 11.4702 67.2168 9.45387C67.6219 8.82017 68.056 8.18647 68.4611 7.55278C68.6637 7.23593 68.7505 6.89027 68.3743 6.65984C68.0271 6.4294 67.7088 6.57342 67.4773 6.91908C66.8985 7.78321 66.3198 8.61854 65.7411 9.45387C65.1623 10.3468 64.5836 11.2397 64.0049 12.1039C63.3104 13.1408 62.6159 14.149 61.9215 15.186C61.8057 15.3588 61.69 15.5604 61.661 15.762C61.5742 16.1365 61.7768 16.3669 62.2976 16.3669Z" fill="white"/>
<path d="M0.83647 52.6894C1.35733 52.6029 1.84925 52.5165 2.34117 52.4301C4.54034 51.9981 6.73951 51.566 8.93868 51.1051C9.69103 50.9611 10.4434 50.7595 11.1957 50.5866C11.514 50.5002 11.7455 50.241 11.6008 49.9529C11.543 49.7801 11.2536 49.6073 11.051 49.5497C10.8485 49.4921 10.5881 49.5497 10.3855 49.5785C7.34718 50.1834 4.30885 50.7595 1.27052 51.3932C0.92328 51.4508 0.576042 51.566 0.286677 51.7388C-0.0894966 51.9692 -0.0605602 52.3725 0.34455 52.5453C0.518169 52.6317 0.691788 52.6317 0.83647 52.6894Z" fill="white"/>
<path d="M37.7306 10.7789C37.557 9.85712 37.3834 8.93538 37.1808 7.98483C36.8625 6.4582 36.5153 4.90276 36.197 3.37612C35.9944 2.45438 35.8497 1.56144 35.6183 0.639697C35.5314 0.322848 35.3289 0.0348037 34.9238 0.121217C34.5476 0.20763 34.5187 0.553284 34.5765 0.870133C34.6634 1.47503 34.7791 2.07992 34.8948 2.68481C35.3578 5.01797 35.7919 7.35113 36.2549 9.68429C36.3417 10.1452 36.4285 10.6348 36.5732 11.0957C36.66 11.4126 36.8915 11.7006 37.2966 11.6142C37.7017 11.499 37.7306 11.1533 37.7306 10.7789Z" fill="white"/>
<path d="M25.8667 71.0666C25.7798 70.8938 25.722 70.6633 25.5773 70.6057C25.4037 70.5481 25.1722 70.5769 24.9986 70.6633C24.8539 70.7497 24.7381 70.9226 24.6224 71.0954C23.9279 72.1035 23.2334 73.0829 22.5679 74.1199C21.4394 75.8193 20.3109 77.5188 19.1823 79.2182C18.7772 79.8231 18.7772 80.14 19.1245 80.3704C19.4717 80.6009 19.8189 80.428 20.1951 79.8519C21.0921 78.4981 22.0181 77.1155 22.9151 75.7617C23.8122 74.4367 24.7092 73.0829 25.5773 71.7579C25.693 71.5275 25.7798 71.3258 25.8667 71.0666Z" fill="white"/>
<path d="M49.7971 76.2226C49.8261 76.3954 49.8261 76.5394 49.855 76.7123C50.1733 78.2389 50.4627 79.7944 50.781 81.321C50.9256 81.9835 51.0993 82.6172 51.215 83.2797C51.3886 84.1726 51.5044 85.0944 51.678 85.9873C51.7359 86.2466 51.8516 86.5058 51.9963 86.7362C52.2567 87.1107 52.7197 87.0243 52.8644 86.621C52.9223 86.4482 52.9223 86.2178 52.8933 86.0161C52.7486 85.3248 52.575 84.6335 52.4593 83.9422C51.9384 81.321 51.4465 78.7286 50.9256 76.1074C50.8388 75.7329 50.6652 75.4161 50.2312 75.4737C49.8261 75.5025 49.8261 75.877 49.7971 76.2226Z" fill="white"/>
<path d="M58.015 75.272C57.9571 75.0416 57.9571 74.9552 57.9282 74.8688C57.552 73.9758 57.1758 73.0829 56.7996 72.2188C55.9894 70.3753 55.1792 68.503 54.3979 66.6595C54.2532 66.285 54.0796 66.1986 53.7324 66.3714C53.0958 66.6595 53.0668 66.6595 53.4141 67.2932C53.443 67.3508 53.4719 67.4084 53.5009 67.466C54.4558 69.684 55.4107 71.9307 56.3656 74.1486C56.5392 74.5519 56.6839 74.9552 56.8575 75.3584C57.0022 75.6753 57.2916 75.8193 57.6099 75.7041C57.7835 75.5889 57.8992 75.3872 58.015 75.272Z" fill="white"/>
<path d="M76.4185 56.1171C76.3317 56.0307 76.2159 55.829 76.0423 55.7426C75.4925 55.4546 74.9138 55.2241 74.3061 54.9937C72.512 54.2736 70.718 53.5535 68.9239 52.8622C68.4609 52.6893 67.9979 52.4877 67.535 52.3149C67.4482 52.2861 67.2745 52.2861 67.1877 52.3437C66.7537 52.7469 66.8405 53.2366 67.3903 53.4959C67.4771 53.5247 67.5639 53.5823 67.6507 53.6111C69.792 54.4752 71.9333 55.3393 74.0457 56.2035C74.5665 56.4051 75.0585 56.6067 75.5793 56.7796C76.0712 56.9236 76.4185 56.6932 76.4185 56.1171Z" fill="white"/>
<path d="M83.8552 82.79C83.7684 82.6748 83.6816 82.4444 83.508 82.3003C81.4245 80.1976 79.3122 78.1237 77.1998 76.021C76.7658 75.5889 76.3896 75.5313 76.1581 75.7905C75.9266 76.0498 76.0134 76.4242 76.4475 76.8275C77.4603 77.8357 78.502 78.8726 79.5147 79.8808C80.5854 80.9465 81.6271 82.0123 82.6977 83.0493C82.8424 83.1933 83.0739 83.3085 83.2765 83.3661C83.6237 83.4813 83.8841 83.2509 83.8552 82.79Z" fill="white"/>
<path d="M31.0752 76.0209C31.162 75.9057 31.3935 75.7617 31.5092 75.5313C31.8854 74.7248 32.2037 73.8894 32.5509 73.0541C32.8403 72.334 33.1007 71.6139 33.3901 70.8938C33.8531 69.6552 34.345 68.4454 34.808 67.2068C34.8369 67.1204 34.779 66.9475 34.6922 66.8899C34.1424 66.4867 33.8241 66.5731 33.5926 67.2068C33.5637 67.322 33.5348 67.4084 33.4769 67.5236C32.8982 68.9351 32.3484 70.3177 31.7696 71.7003C31.3067 72.8813 30.8147 74.0622 30.3807 75.2432C30.2071 75.7041 30.4675 76.0497 31.0752 76.0209Z" fill="white"/>
<path d="M76.6211 11.4126C76.9973 11.0957 77.3445 10.8365 77.6628 10.5196C78.2705 9.91475 78.8782 9.28105 79.4859 8.67616C80.5854 7.58159 81.714 6.48702 82.8135 5.39245C83.074 5.13321 83.3633 4.87397 83.5948 4.61473C83.8263 4.35549 83.971 4.03864 83.7395 3.75059C83.508 3.46255 83.1608 3.57777 82.9293 3.7794C82.611 4.03864 82.2927 4.32668 82.0033 4.61473C81.4246 5.19082 80.8748 5.79571 80.2671 6.3718C79.1965 7.43756 78.0969 8.50333 76.9973 9.56909C76.7369 9.82833 76.4475 10.1164 76.216 10.4332C76.1003 10.6061 76.0713 10.8653 76.1003 11.0381C76.1582 11.1533 76.3896 11.2398 76.6211 11.4126Z" fill="white"/>
<path d="M75.6373 29.3001C75.2033 29.4442 74.856 29.5594 74.5088 29.7034C73.0909 30.3083 71.673 30.942 70.2551 31.5757C69.1845 32.0366 68.0849 32.5262 67.0143 32.9871C66.5223 33.1887 66.8696 33.4768 66.9564 33.736C67.0432 33.9953 67.1589 34.1681 67.4772 34.0241C67.8534 33.8512 68.2585 33.6784 68.6347 33.5344C70.313 32.8143 71.9913 32.123 73.6696 31.4029C74.3931 31.086 75.0875 30.798 75.782 30.4235C75.9556 30.3371 76.0714 29.9914 76.0714 29.761C76.0424 29.5594 75.782 29.4442 75.6373 29.3001Z" fill="white"/>
<path d="M11.485 76.1362C11.3403 75.9634 11.2535 75.7329 11.1378 75.7329C10.9352 75.7041 10.6748 75.7329 10.5301 75.8481C10.1539 76.1362 9.80671 76.4818 9.45947 76.8275C8.38882 77.8933 7.34711 78.9302 6.3054 79.996C5.52411 80.8025 4.71389 81.5802 3.93261 82.3868C3.70112 82.646 3.5275 82.9628 3.81686 83.2509C4.10623 83.5389 4.42453 83.3661 4.68496 83.1645C4.77177 83.1069 4.82964 82.9916 4.91645 82.934C5.95816 81.8683 7.02881 80.8025 8.07052 79.7655C9.05436 78.7862 10.0382 77.8356 11.022 76.8563C11.1957 76.6547 11.3114 76.3954 11.485 76.1362Z" fill="white"/>
<path d="M11.8614 57.7301C12.2087 57.5861 12.498 57.4997 12.7585 57.3845C14.321 56.722 15.8547 56.0595 17.4172 55.397C18.3721 54.9937 19.327 54.5616 20.3109 54.1584C20.7739 53.9568 20.4845 53.6975 20.3977 53.4383C20.3109 53.179 20.2241 52.9486 19.8479 53.1214C19.327 53.3519 18.7772 53.5247 18.2853 53.7263C16.4334 54.504 14.5814 55.3106 12.7295 56.0883C12.3823 56.2323 12.0061 56.3475 11.7167 56.5492C11.5142 56.6932 11.3984 57.0388 11.3984 57.2693C11.3984 57.4421 11.6878 57.5861 11.8614 57.7301Z" fill="white"/>
<path d="M57.2047 11.3838C57.089 11.2686 56.9443 11.0381 56.7707 10.9805C56.5971 10.9229 56.2788 11.0093 56.1919 11.1533C55.9605 11.4702 55.7868 11.8446 55.6422 12.2191C54.6873 14.5523 53.7613 16.8854 52.8064 19.2186C52.5749 19.7371 52.8643 19.8523 53.2404 20.0251C53.6166 20.1979 53.7902 20.0827 53.9349 19.7083C54.9766 17.1159 56.0183 14.5523 57.0311 11.9887C57.089 11.8158 57.1179 11.643 57.2047 11.3838Z" fill="white"/>
<path d="M11.3695 10.6924C11.3116 10.5772 11.2248 10.3468 11.0512 10.2028C8.96774 8.12885 6.91325 6.08373 4.82982 4.03862C4.68514 3.8946 4.54046 3.75057 4.36684 3.72177C4.19322 3.66416 3.90386 3.66416 3.78811 3.77938C3.67236 3.9234 3.64343 4.21145 3.7013 4.38427C3.78811 4.5859 3.99066 4.75873 4.13535 4.93156C6.01622 6.83265 7.89709 8.70494 9.80689 10.606C10.0384 10.8365 10.2988 11.0669 10.5882 11.2109C11.0222 11.4126 11.3695 11.2109 11.3695 10.6924Z" fill="white"/>
<path d="M29.4546 11.7582C29.5414 12.0463 29.5993 12.2191 29.6571 12.3919C30.5252 14.3794 31.3644 16.3669 32.2325 18.3544C32.464 18.8729 32.6665 19.3914 32.898 19.9099C33.1295 20.3995 33.4478 20.1115 33.7372 20.0251C34.0844 19.9099 34.1423 19.7082 33.9976 19.3914C33.7372 18.9017 33.4768 18.3832 33.2742 17.8648C32.6376 16.3381 32.001 14.8115 31.3644 13.2848C31.1329 12.7376 30.8725 12.1615 30.5542 11.643C30.4384 11.4702 30.1201 11.3549 29.8886 11.3549C29.744 11.3838 29.5993 11.6142 29.4546 11.7582Z" fill="white"/>
<path d="M11.5719 30.1643C11.4272 30.3083 11.1378 30.4235 11.1089 30.5963C11.051 30.7692 11.2247 31.0284 11.3404 31.2012C11.3983 31.2877 11.543 31.3453 11.6587 31.3741C12.44 31.6909 13.1923 32.0078 13.9736 32.3246C15.623 32.9583 17.2724 33.592 18.9218 34.2545C19.6741 34.5426 19.732 34.5137 19.9635 33.7648C20.0503 33.4768 19.9635 33.3904 19.732 33.304C19.3269 33.1599 18.8928 33.0447 18.4877 32.8719C16.8383 32.2094 15.2179 31.5181 13.5685 30.8556C12.9319 30.6251 12.2953 30.4235 11.5719 30.1643Z" fill="white"/>
<path d="M97.8605 42.8958C97.629 42.8958 97.4843 42.8958 97.3397 42.8958C95.1116 42.8958 92.8834 42.8958 90.6553 42.8958C89.9898 42.8958 89.7004 43.0687 89.7004 43.4431C89.7004 43.8752 89.9609 44.0192 90.6843 44.0192C92.9124 44.0192 95.1405 44.0192 97.3686 44.0192C97.5422 44.0192 97.7158 43.9904 97.8895 43.9904C97.8605 43.616 97.8605 43.2991 97.8605 42.8958Z" fill="white"/>
<path d="M67.9113 60.0921C68.056 60.0057 68.2585 59.9193 68.3453 59.7464C68.4322 59.6024 68.4322 59.3432 68.3453 59.228C68.2007 59.0263 67.9981 58.8823 67.7666 58.7383C67.2458 58.4214 66.696 58.1334 66.1751 57.8165C65.77 57.5861 65.3938 57.3557 64.9887 57.154C64.5257 56.9524 64.4968 57.4421 64.3232 57.6437C64.2653 57.7013 64.3521 58.0182 64.4389 58.0758C65.4228 58.7095 66.4355 59.2856 67.4483 59.8905C67.593 59.9769 67.7087 60.0057 67.9113 60.0921Z" fill="white"/>
<path d="M49.9995 71.7579C49.9706 71.7291 49.9416 71.7003 49.9127 71.6715C49.9127 71.6139 49.9127 71.5563 49.8837 71.4698C49.6233 70.3465 49.3918 69.2519 49.1314 68.1285C49.1025 68.0133 48.871 67.9269 48.7552 67.8981C48.6105 67.8693 48.4659 67.9845 48.3501 67.9845C47.945 68.0133 47.9161 68.2149 48.0029 68.5318C48.1476 69.0791 48.2922 69.6552 48.4369 70.2024C48.5816 70.7497 48.7263 71.3258 48.9578 71.8443C49.0446 72.0171 49.3629 72.19 49.5655 72.19C49.7101 72.2188 49.8259 71.9019 49.9995 71.7579Z" fill="white"/>
<path d="M72.1359 37.1926C71.7308 37.3078 71.4414 37.3942 71.1521 37.4518C70.3708 37.6534 69.6184 37.9127 68.8372 38.0855C68.3742 38.1719 68.3742 38.4024 68.432 38.748C68.4899 39.1513 68.6346 39.2953 69.0397 39.1801C70.0236 38.9496 71.0074 38.7192 71.9912 38.4888C72.1359 38.46 72.3385 38.3735 72.3963 38.2583C72.541 38.0567 72.6857 37.7975 72.6568 37.5958C72.5989 37.4518 72.3095 37.3366 72.1359 37.1926Z" fill="white"/>
<path d="M27.1399 67.4948C27.2556 67.6677 27.3424 67.9845 27.4871 68.0133C27.6897 68.0709 27.9212 67.8981 28.1527 67.7829C28.2395 67.7541 28.2684 67.6389 28.3263 67.5524C28.8471 66.6883 29.3391 65.8242 29.8599 64.9888C30.2072 64.4704 29.7152 64.4128 29.4837 64.2111C29.2233 63.9807 29.0497 64.0671 28.8761 64.3551C28.4131 65.1329 27.9501 65.9106 27.4871 66.6883C27.3424 66.8899 27.2556 67.1492 27.1399 67.4948Z" fill="white"/>
<path d="M60.3877 19.4202C60.2141 19.2474 60.0983 19.0458 59.9536 18.9881C59.6064 18.8729 59.3749 19.1034 59.2013 19.3626C58.7383 20.1115 58.3043 20.8892 57.8702 21.6382C57.5519 22.2142 57.6677 22.5023 58.3043 22.7327C58.3911 22.7615 58.5936 22.7039 58.6515 22.6175C58.9987 22.099 59.3749 21.5517 59.6932 20.9757C59.9247 20.5148 60.1273 19.9963 60.3877 19.4202Z" fill="white"/>
<path d="M15.2469 49.7801C16.3176 49.5209 17.2435 49.2904 18.1695 49.0312C18.835 48.8584 18.8061 48.8296 18.6904 48.1671C18.6325 47.8214 18.4878 47.735 18.1695 47.8502C17.8801 47.9654 17.5908 48.023 17.3014 48.0806C16.5491 48.2823 15.8257 48.4839 15.1022 48.7431C14.9286 48.8007 14.755 49.1752 14.7839 49.348C14.8418 49.5209 15.1312 49.6649 15.2469 49.7801Z" fill="white"/>
<path d="M37.4412 15.33C37.7016 16.2805 37.962 17.1159 38.1646 17.98C38.2803 18.4985 38.5697 18.5849 39.0616 18.4697C39.351 18.412 39.4378 18.2968 39.351 18.0088C39.2352 17.6055 39.1774 17.1735 39.0616 16.7414C38.9169 16.1941 38.7722 15.618 38.5407 15.0995C38.4539 14.8979 38.0778 14.6963 37.8752 14.7251C37.7016 14.7827 37.5858 15.1571 37.4412 15.33Z" fill="white"/>
<path d="M19.7031 26.9958C19.2112 26.9958 18.9508 27.3414 19.1244 27.6871C19.2112 27.8887 19.3848 28.0904 19.5874 28.2056C20.3108 28.6376 21.0631 29.0697 21.8155 29.473C21.9023 29.5306 22.1048 29.473 22.2206 29.4154C22.3363 29.3289 22.3942 29.1849 22.481 29.0697C22.7125 28.7817 22.7125 28.6088 22.3363 28.4072C21.6419 28.0327 20.9763 27.6007 20.2818 27.2262C20.0793 27.0822 19.8478 27.0246 19.7031 26.9958Z" fill="white"/>
<path d="M46.7877 22.3007C46.7588 22.4735 46.7009 22.6751 46.6719 22.8479C46.5273 23.6257 46.3826 24.4322 46.2668 25.2099C46.209 25.5268 46.2668 25.8436 46.643 25.93C47.0481 26.0452 47.2217 25.7572 47.3375 25.4115C47.3664 25.2963 47.3954 25.2099 47.4243 25.0947C47.54 24.5186 47.5979 23.9425 47.7426 23.3952C47.9741 22.3295 48.0609 22.4159 46.9034 22.243C46.8745 22.243 46.8456 22.2718 46.7877 22.3007Z" fill="white"/>
<path d="M43.026 23.5969C43.026 24.0577 43.026 24.4898 43.026 24.9507C43.026 25.2675 43.1128 25.5844 43.5179 25.6132C43.923 25.642 44.1545 25.3827 44.1545 24.9795C44.1835 24.0865 44.1835 23.1936 44.1545 22.2719C44.1256 21.811 43.7205 21.955 43.4311 21.9262C43.1707 21.8974 42.9971 21.955 42.9971 22.2719C43.026 22.7327 43.026 23.1648 43.026 23.5969Z" fill="white"/>
<path d="M27.979 28.7529C27.9501 28.8681 27.8922 28.9545 27.8633 29.0697C28.5867 29.6746 29.2812 30.2795 30.0046 30.8844C30.265 31.086 30.5544 31.2877 30.8727 30.9996C31.191 30.7116 31.1331 30.3659 30.8727 30.1067C30.1782 29.4442 29.4548 28.7817 28.6735 28.0616C28.4999 28.2632 28.2395 28.5224 27.979 28.7529Z" fill="white"/>
<path d="M32.8692 28.9833C33.5058 28.9833 33.6794 28.6088 33.39 28.148C32.927 27.4278 32.4062 26.7365 31.9143 26.0164C31.7406 25.786 31.567 25.642 31.3355 25.8724C31.133 26.074 30.5543 26.1316 30.9304 26.6501C31.4223 27.3414 31.9143 28.0615 32.4062 28.724C32.5509 28.8681 32.7824 28.9257 32.8692 28.9833Z" fill="white"/>
<path d="M40.3058 22.243C39.9875 22.3007 39.6981 22.3295 39.4087 22.3871C39.3219 22.4159 39.1772 22.5887 39.1772 22.6751C39.3798 23.6257 39.5824 24.5762 39.8139 25.5268C39.9007 25.8436 40.1322 25.9588 40.4505 25.8724C40.7977 25.7572 40.8556 25.4979 40.7977 25.1811C40.7398 24.7778 40.653 24.3746 40.5951 23.9425C40.5083 23.424 40.3926 22.8479 40.3058 22.243Z" fill="white"/>
<path d="M28.9627 32.9583C28.8759 32.8719 28.7313 32.6703 28.5576 32.5262C27.921 32.0654 27.2844 31.6621 26.6768 31.2012C26.4742 31.0572 26.2717 30.8844 26.127 31.2012C25.9823 31.4893 25.4325 31.7485 25.9244 32.123C26.6189 32.6703 27.3712 33.1599 28.1236 33.6208C28.5287 33.8512 28.9917 33.5632 28.9627 32.9583Z" fill="white"/>
<path d="M37.007 26.5637C36.6598 25.4979 36.3125 24.5474 35.7049 23.7409C35.647 23.6545 35.3287 23.6833 35.1551 23.7409C34.9236 23.7985 34.721 23.9713 34.8368 24.2306C35.184 25.0947 35.5313 25.9588 35.9364 26.7941C36.0232 26.967 36.3704 27.0822 36.573 27.0534C36.7755 27.0246 36.8913 26.7365 37.007 26.5637Z" fill="white"/>
<path d="M52.1699 23.9713C51.9963 23.8561 51.7937 23.6545 51.5622 23.5969C51.4175 23.5393 51.1282 23.5969 51.0703 23.6833C50.7231 24.5186 50.3758 25.3539 50.0865 26.2181C50.0286 26.3909 50.2311 26.7942 50.4337 26.9094C50.752 27.0822 51.0124 26.7942 51.1282 26.5061C51.4175 25.8724 51.678 25.2387 51.9384 24.605C52.0541 24.4322 52.0831 24.2594 52.1699 23.9713Z" fill="white"/>
<path d="M59.2015 29.0121C58.8542 28.6376 58.6806 28.4072 58.4781 28.2344C58.3913 28.1768 58.1598 28.148 58.1019 28.2056C57.4653 28.8105 56.8576 29.4442 56.25 30.1067C56.0474 30.3371 56.0763 30.6827 56.3078 30.8844C56.5972 31.1148 56.8866 31.0284 57.147 30.798C57.8125 30.2219 58.4781 29.6458 59.2015 29.0121Z" fill="white"/>
<path d="M54.2823 28.8392C54.3691 28.7816 54.5716 28.6952 54.6874 28.5512C55.1793 27.8887 55.6423 27.1974 56.1053 26.4773C56.1631 26.3909 56.1342 26.1892 56.0474 26.1028C55.9316 25.9588 55.758 25.9012 55.6133 25.786C55.3819 25.6131 55.2372 25.6132 55.0925 25.9012C54.861 26.3045 54.5427 26.6501 54.2823 27.0534C54.0797 27.3702 53.8482 27.6871 53.6746 28.0327C53.472 28.4648 53.7325 28.8681 54.2823 28.8392Z" fill="white"/>
<path d="M60.5902 30.8268C59.8958 31.3453 59.1723 31.8061 58.5068 32.3246C58.1885 32.555 58.1306 32.9007 58.3911 33.2176C58.6515 33.5344 58.9409 33.3904 59.2302 33.2464C59.6643 32.9583 60.1272 32.6703 60.5324 32.3534C61.3426 31.7485 61.3715 31.6333 60.5902 30.8268Z" fill="white"/>
<path d="M26.4453 37.1926C26.5321 37.1637 26.6478 37.1925 26.6768 37.1349C26.8214 37.0197 27.0529 36.8469 27.0529 36.7317C26.9951 36.5012 26.8504 36.2132 26.6768 36.1268C25.9244 35.7811 25.1431 35.4931 24.3618 35.205C23.9857 35.061 23.9278 35.4355 23.841 35.6659C23.7542 35.8964 23.7252 36.1268 24.0435 36.242C24.738 36.5012 25.4035 36.7893 26.098 37.0773C26.1848 37.1637 26.3006 37.1637 26.4453 37.1926Z" fill="white"/>
<path d="M22.7124 40.1306C22.6834 40.5627 22.7124 40.5627 23.1464 40.6491C23.812 40.7643 24.4775 40.8795 25.143 41.0235C25.5192 41.0812 25.8375 40.9947 25.9533 40.5915C26.069 40.1882 25.7796 39.9866 25.4613 39.929C24.7958 39.785 24.1013 39.6409 23.4358 39.5545C22.7992 39.4393 22.7413 39.4969 22.7124 40.1306Z" fill="white"/>
<path d="M60.6481 36.8469C61.4872 36.5301 62.2685 36.2132 63.0498 35.8964C63.1366 35.8676 63.1945 35.6659 63.1656 35.5795C63.1077 35.3491 63.0209 35.1474 62.9051 34.9458C62.8473 34.8594 62.6736 34.773 62.6158 34.8018C61.8634 35.1186 61.14 35.4067 60.4166 35.7811C60.2719 35.8676 60.1851 36.2132 60.214 36.4148C60.243 36.5877 60.4745 36.7029 60.6481 36.8469Z" fill="white"/>
<path d="M22.9729 46.842C23.0308 47.1877 23.0308 47.4181 23.1176 47.6198C23.1755 47.735 23.378 47.9078 23.4648 47.879C24.1593 47.7926 24.8248 47.6486 25.4904 47.5045C25.8087 47.4469 26.1559 47.3029 26.0691 46.8708C25.9823 46.4964 25.6351 46.3236 25.2878 46.3812C24.5065 46.5252 23.7542 46.698 22.9729 46.842Z" fill="white"/>
<path d="M27.2555 50.9323C27.2266 50.3562 26.7925 50.1258 26.3006 50.3274C25.7508 50.529 25.201 50.7883 24.6512 50.9899C24.3329 51.1051 24.3329 51.3355 24.4776 51.566C24.6223 51.8252 24.6223 52.3149 25.1431 52.1133C25.7219 51.8828 26.2716 51.6524 26.8214 51.3931C27.024 51.2779 27.1687 51.0187 27.2555 50.9323Z" fill="white"/>
<path d="M23.9567 44.2496C24.3039 44.2496 24.6801 44.2496 25.0273 44.2208C25.3746 44.192 25.6929 44.0768 25.6929 43.6736C25.6929 43.2703 25.3746 43.1839 25.0563 43.1551C24.3329 43.1263 23.6094 43.1551 22.886 43.1551C22.7992 43.1551 22.6545 43.2415 22.6256 43.2991C22.3652 43.7888 22.6545 44.2496 23.2333 44.2496C23.4358 44.2496 23.6963 44.2496 23.9567 44.2496Z" fill="white"/>
<path d="M29.2522 54.216C29.1364 54.0144 29.0496 53.7551 28.9339 53.7263C28.7024 53.6687 28.3841 53.6975 28.1815 53.8127C27.7185 54.1008 27.3134 54.4464 26.8504 54.7633C26.619 54.9073 26.4453 55.0801 26.7058 55.3106C26.9373 55.541 27.0241 56.0595 27.5449 55.7138C27.979 55.397 28.442 55.1089 28.876 54.7633C28.9917 54.6193 29.1075 54.4176 29.2522 54.216Z" fill="white"/>
<path d="M64.1496 46.554C64.1207 46.5252 64.0918 46.2948 64.0049 46.266C63.2815 46.1507 62.5871 46.0355 61.8636 46.0067C61.719 46.0067 61.4585 46.3236 61.4007 46.5252C61.3717 46.6404 61.6032 46.9285 61.7768 46.9861C62.2688 47.1589 62.7896 47.2741 63.3105 47.3605C63.9471 47.5045 64.1207 47.3317 64.1496 46.554Z" fill="white"/>
<path d="M62.0082 40.5915C62.7026 40.4763 63.3103 40.361 63.918 40.2746C64.3231 40.217 64.3231 39.9578 64.2652 39.6697C64.2073 39.4105 64.1784 39.0648 63.7444 39.1513C63.1367 39.2665 62.558 39.3529 61.9503 39.4681C61.632 39.5257 61.3426 39.6697 61.4005 40.0442C61.4294 40.4763 61.7188 40.5915 62.0082 40.5915Z" fill="white"/>
<path d="M30.6989 56.0307C30.4963 56.1459 30.3227 56.2035 30.207 56.3187C29.8019 56.6932 29.3967 57.0676 28.9916 57.4997C28.9338 57.5861 28.9048 57.7877 28.9627 57.903C29.0784 58.0758 29.2521 58.2486 29.4546 58.3638C29.5414 58.4214 29.715 58.4214 29.7729 58.3926C30.2359 57.9318 30.7278 57.4709 31.1329 56.9812C31.2487 56.866 31.2487 56.578 31.1619 56.4051C31.1329 56.2323 30.9014 56.1459 30.6989 56.0307Z" fill="white"/>
<path d="M62.529 51.5948C62.6448 51.3644 62.7026 51.1915 62.8184 51.0187C63.0209 50.673 62.9341 50.4714 62.5579 50.3274C62.1239 50.1546 61.6899 49.9817 61.2558 49.8089C60.9086 49.6649 60.5903 49.6649 60.3588 50.0393C60.1273 50.4426 60.4167 50.7019 60.706 50.8459C61.3137 51.1339 61.9213 51.3644 62.529 51.5948Z" fill="white"/>
<path d="M63.2235 43.8464C63.5418 43.8752 63.8311 43.8752 64.1494 43.8752C64.4677 43.8752 64.4677 43.6159 64.4677 43.3855C64.4677 43.1551 64.5835 42.8094 64.2073 42.7806C63.5418 42.7518 62.8473 42.7518 62.1817 42.8094C61.8924 42.8382 61.632 42.9534 61.6609 43.3279C61.6898 43.6735 61.9213 43.8464 62.2396 43.8752C62.5579 43.8752 62.9052 43.8464 63.2235 43.8464Z" fill="white"/>
<path d="M33.9109 58.6519C33.7662 58.5078 33.6504 58.2774 33.5058 58.2774C33.3032 58.2486 32.9849 58.3062 32.8692 58.4502C32.493 58.8823 32.1457 59.4008 31.8274 59.8905C31.7696 59.9481 31.8274 60.1497 31.8853 60.2073C32.0589 60.3513 32.2325 60.4953 32.464 60.553C32.5508 60.5818 32.7534 60.553 32.8113 60.4665C33.1296 60.0345 33.4479 59.5736 33.7372 59.1127C33.8241 59.0263 33.853 58.8823 33.9109 58.6519Z" fill="white"/>
<path d="M60.8797 54.4176C60.5035 54.1584 60.1563 53.8991 59.7801 53.6399C59.6354 53.5535 59.5197 53.4671 59.375 53.3807C59.0277 53.2078 58.7384 53.2654 58.5358 53.5823C58.3333 53.8991 58.478 54.1584 58.7673 54.36C59.0277 54.5328 59.2882 54.7345 59.5486 54.9073C60.3588 55.4546 60.4167 55.4258 60.8507 54.5328C60.8797 54.5328 60.8507 54.504 60.8797 54.4176Z" fill="white"/>
<path d="M37.4413 60.6106C37.2966 60.4377 37.1808 60.1497 37.0072 60.1209C36.8336 60.0633 36.4864 60.2073 36.3995 60.3513C36.1102 60.8986 35.8787 61.4459 35.7051 62.022C35.6761 62.1084 36.0234 62.3388 36.2259 62.4252C36.3706 62.4829 36.7178 62.454 36.7468 62.3676C37.0361 61.8203 37.2098 61.2443 37.4413 60.6106Z" fill="white"/>
<path d="M56.3945 56.4915C56.4524 56.578 56.5103 56.7796 56.626 56.9236C56.8575 57.1829 57.1179 57.4421 57.3784 57.6725C57.8414 58.1046 57.8703 58.1046 58.3043 57.6437C58.4201 57.5285 58.5358 57.2405 58.5069 57.1829C58.0728 56.722 57.6388 56.2611 57.1469 55.9155C56.7707 55.6562 56.3656 55.9443 56.3945 56.4915Z" fill="white"/>
<path d="M39.8717 62.8285C39.8138 63.5486 40.2479 63.4334 40.5083 63.5198C40.7977 63.6062 40.9424 63.491 40.9713 63.1742C41.0292 62.7421 41.116 62.3388 41.2317 61.9068C41.3185 61.5611 41.2317 61.2443 40.8845 61.1291C40.5083 61.0138 40.2479 61.2443 40.1611 61.5899C40.0164 62.0508 39.9296 62.5405 39.8717 62.8285Z" fill="white"/>
<path d="M55.0345 60.2649C55.237 60.1497 55.3817 60.0345 55.5264 59.9481C55.9315 59.7465 55.9604 59.4872 55.7 59.1416C55.4685 58.8247 55.1792 58.5367 54.9477 58.2198C54.7451 57.9318 54.4847 57.8165 54.1664 58.0182C53.8481 58.2198 53.8481 58.5367 54.0217 58.8247C54.34 59.3144 54.6872 59.7753 55.0345 60.2649Z" fill="white"/>
<path d="M48.1476 63.1454C48.0029 62.5405 47.8871 61.9068 47.6846 61.3307C47.6267 61.1867 47.2795 61.0138 47.1058 61.0426C46.9322 61.0714 46.7586 61.3595 46.7297 61.5611C46.6718 61.8492 46.7586 62.1372 46.7875 62.4252C46.8744 63.5486 46.9033 63.5774 48.1476 63.1454Z" fill="white"/>
<path d="M51.0703 59.8329C50.6073 59.9193 50.4047 60.1497 50.4916 60.4666C50.6652 61.0138 50.8677 61.5899 51.186 62.0796C51.4175 62.4253 51.7358 62.022 51.9673 61.9356C52.0541 61.9068 52.1409 61.6475 52.112 61.5323C51.9673 61.1003 51.7937 60.697 51.5622 60.2937C51.4754 60.0921 51.215 59.9481 51.0703 59.8329Z" fill="white"/>
<path d="M44.4148 62.7133C44.3859 62.4541 44.4438 62.1948 44.357 61.9644C44.2702 61.734 44.0965 61.4459 43.894 61.3883C43.5467 61.3019 43.3731 61.6187 43.3442 61.9356C43.2863 62.3676 43.3153 62.8285 43.2863 63.2606C43.2574 63.635 43.431 63.7215 43.7782 63.7215C44.357 63.7215 44.3859 63.6927 44.3859 63.0878C44.4148 62.9725 44.4148 62.8285 44.4148 62.7133Z" fill="white"/>
</svg>
