<svg width="74" height="66" viewBox="0 0 74 66" fill="none" xmlns="http://www.w3.org/2000/svg">
<g clip-path="url(#clip0_0_214)">
<path d="M12.6667 8.80005C8.66391 8.80005 5.36667 11.7811 5.36667 15.4V44C5.36667 45.6909 6.1067 47.2267 7.28197 48.4001H0.5C0.5 52.0454 3.76797 55 7.8 55H17.5333V48.4001V46.2001H12.6667C11.2918 46.2001 10.2333 45.2431 10.2333 44V15.4C10.2333 14.157 11.2918 13.2 12.6667 13.2H61.3333V8.80005H12.6667ZM44.3 17.6C41.616 17.6 39.4333 19.5734 39.4333 22V24.2H44.3V22H68.6333V50.6H58.9C58.9 51.8144 57.8099 52.8 56.4667 52.8C55.1235 52.8 54.0333 51.8144 54.0333 50.6H51.6V57.2001H68.6333C71.3173 57.2001 73.5 55.2267 73.5 52.8V22C73.5 19.5734 71.3173 17.6 68.6333 17.6H44.3ZM27.2667 28.6C24.5778 28.6 22.4 30.569 22.4 33V55C22.4 57.431 24.5778 59.4001 27.2667 59.4001H41.8667C44.5555 59.4001 46.7333 57.431 46.7333 55V33C46.7333 30.569 44.5555 28.6 41.8667 28.6H27.2667ZM27.2667 33H41.8667V55H37C37 56.2145 35.8734 57.2001 34.5667 57.2001C33.26 57.2001 32.1333 56.2145 32.1333 55H27.2667V33Z" fill="#F8F8F6"/>
</g>
<defs>
<clipPath id="clip0_0_214">
<rect width="73" height="66" fill="white" transform="translate(0.5)"/>
</clipPath>
</defs>
</svg>
