<svg width="73" height="74" viewBox="0 0 73 74" fill="none" xmlns="http://www.w3.org/2000/svg">
<path d="M21.9 12.18C21.9 12.18 17.3893 12.0728 13.947 13.794C12.6611 14.437 12.3174 14.321 11.4005 14.6267C10.9421 14.7795 10.3844 15.1328 9.99473 15.5933C9.60504 16.0539 9.30075 16.5935 8.91398 17.367C8.22751 18.74 7.55567 19.7148 6.99773 20.2728C6.4398 20.8307 6.08333 20.94 5.84 20.94C5.11 20.94 3.84716 20.896 2.5607 21.4105C1.27425 21.9251 0 23.3734 0 25.32C0 26.1717 0.092817 26.8873 0.362148 27.5414C0.63148 28.1955 1.1751 28.8332 1.91055 29.0784C2.64599 29.3235 3.36552 29.1634 3.9266 28.9016C4.41004 28.676 4.81159 28.3335 5.20695 27.9634C5.23233 27.9668 5.26678 27.9622 5.40086 28.0119C5.75255 28.1422 6.34612 28.5113 6.89793 28.9843C7.44974 29.4573 7.98143 30.0316 8.33512 30.5156C8.58833 30.8621 8.69317 31.2185 8.73434 31.2655C8.68899 31.5565 8.395 32.2211 8.395 33.35C8.395 33.9584 8.59023 34.7063 9.05086 35.3205C9.51149 35.9346 10.1664 36.4157 11.027 36.846C12.0517 37.3584 12.1029 37.797 12.256 38.5627C12.3326 38.9455 12.3461 39.3694 12.5754 39.9657C12.6901 40.2638 12.8912 40.6408 13.274 40.9409C13.6568 41.2409 14.1742 41.38 14.6 41.38C14.4783 41.38 14.801 41.4309 15.176 41.6452C15.5511 41.8595 16.0058 42.1853 16.425 42.5207C17.2633 43.1913 17.9477 43.8723 17.9477 43.8723C18.1041 44.0284 18.2939 44.1469 18.5027 44.219C18.7115 44.2911 18.934 44.3149 19.1534 44.2885C19.3727 44.2622 19.5833 44.1864 19.7691 44.0669C19.9549 43.9473 20.1112 43.7872 20.2261 43.5985C20.2261 43.5985 22.4063 40.2713 20.2689 37.4221C20.0698 37.1567 20.02 37.046 19.8811 36.8403C19.9145 36.8396 19.9492 36.8417 19.9837 36.8403C20.2812 36.8285 20.7994 36.8268 21.3154 36.3442C21.8315 35.8615 21.8757 35.2964 21.8943 34.9868C21.9129 34.6773 21.9 34.4248 21.9 34.08C21.9 33.8367 22.1747 32.8086 22.6043 32.0925C22.8192 31.7344 23.0652 31.4368 23.2431 31.2826C23.421 31.1285 23.4817 31.16 23.36 31.16C23.7858 31.16 24.2963 31.0359 24.7031 30.7009C25.1099 30.3659 25.3271 29.8797 25.3932 29.4833C25.5253 28.6906 25.3006 28.1261 25.031 27.587C24.7615 27.0479 24.3922 26.5498 23.8989 26.127C23.4057 25.7042 22.7517 25.32 21.9 25.32C22.0217 25.32 21.9457 25.3392 21.8002 25.2145C21.7238 25.149 21.6586 25.0299 21.5806 24.9265C21.7941 24.8333 22.0353 24.8705 22.2222 24.7069C22.7418 24.2523 22.995 23.5457 22.995 22.9475C22.995 21.7511 22.3743 20.8098 21.4723 19.9078C21.5374 19.9729 21.4615 19.9541 21.5036 19.5741C21.5459 19.1941 21.7249 18.6102 21.9656 18.0485C22.414 17.0022 22.9792 16.1238 23.0606 15.9983C23.2026 15.8603 23.4798 15.5706 23.7535 15.023C23.9318 14.6664 24.2386 14.0485 23.822 13.2151C23.6136 12.7985 23.2101 12.4879 22.861 12.3483C22.5119 12.2086 22.2042 12.18 21.9 12.18ZM32.12 13.64C32.12 13.64 30.9353 13.6378 29.5422 13.8368C28.1491 14.0358 26.4939 14.2816 25.2477 15.5278C24.5177 16.2578 23.6804 16.8194 23.2516 18.1056C23.1445 18.4271 23.0717 18.8611 23.206 19.3374C23.3404 19.8138 23.7013 20.2336 24.0586 20.461C24.7733 20.9157 25.4283 20.94 26.28 20.94C26.4941 20.94 26.5784 20.9592 26.6336 20.9714C26.6384 21.0051 26.645 21.03 26.645 21.1225C26.645 21.6457 26.28 22.6434 26.28 23.86C26.28 24.225 26.2698 24.6345 26.3427 25.109C26.4157 25.5835 26.573 26.3691 27.452 26.8085C28.331 27.248 29.1434 26.9038 29.7332 26.5433C30.323 26.1829 30.9192 25.6653 31.6923 24.8923C33.2383 23.3463 34.1048 22.0961 34.5695 20.9343C35.0342 19.7725 35.04 18.75 35.04 18.02C35.04 17.29 35.089 16.4674 34.7834 15.5506C34.6305 15.0921 34.3484 14.5793 33.8595 14.1989C33.3705 13.8186 32.7283 13.64 32.12 13.64ZM20.1691 15.2455C19.8842 15.7131 19.668 15.9897 19.2794 16.8965C18.9726 17.6124 18.6954 18.3972 18.6007 19.249C18.5061 20.1009 18.6126 21.1771 19.4077 21.9723C19.77 22.3345 19.7642 22.4352 19.8412 22.6053C19.5838 22.676 19.3223 22.6735 19.0969 22.8591C18.6901 23.1941 18.4729 23.6804 18.4068 24.0767C18.2747 24.8695 18.4994 25.4339 18.769 25.973C19.0385 26.5121 19.4078 27.0102 19.9011 27.433C20.3943 27.8558 21.0483 28.24 21.9 28.24C21.7783 28.24 21.8543 28.2208 21.9998 28.3455C22.0916 28.4242 22.1759 28.5635 22.265 28.6906C21.961 28.8401 21.5655 28.8736 21.3325 29.0755C20.8261 29.5145 20.4333 30.0381 20.1007 30.5926C19.4642 31.6534 19.0658 32.7694 19.0285 33.9289C18.6359 33.9288 18.2574 33.9213 17.7709 34.0743C17.2569 34.236 16.4938 34.8789 16.3765 35.637C16.2593 36.3951 16.5031 36.8944 16.7729 37.4135C17.0427 37.9326 17.4175 38.488 17.9335 39.1758C18.1267 39.4334 18.0111 39.7684 18.0304 40.0854C17.5913 39.7434 17.1287 39.3954 16.6246 39.1073C16.2295 38.8816 15.7336 38.785 15.253 38.6682C15.2257 38.5268 15.1965 38.3799 15.119 37.9924C14.9071 36.933 14.2283 35.1817 12.333 34.234C11.7336 33.9343 11.476 33.6854 11.3891 33.5696C11.3023 33.4538 11.315 33.4717 11.315 33.35C11.315 33.1067 11.68 32.3767 11.68 31.16C11.68 30.065 11.2037 29.4955 10.6905 28.7932C10.1773 28.091 9.52276 27.3878 8.79707 26.7658C8.07138 26.1437 7.2962 25.6004 6.41602 25.2744C5.97592 25.1114 5.49665 24.9962 4.95316 25.032C4.40967 25.0679 3.78833 25.3072 3.34773 25.7478C3.20309 25.8924 3.12228 25.9242 3.00555 26.0101C2.96691 25.8158 2.92 25.6984 2.92 25.32C2.92 24.3467 3.10575 24.3349 3.6443 24.1195C4.18284 23.9041 5.11 23.86 5.84 23.86C7.05667 23.86 8.1602 23.2394 9.06227 22.3373C9.96433 21.4352 10.7525 20.2201 11.526 18.673C11.8693 17.9866 12.1125 17.6137 12.2246 17.4811C12.3368 17.3485 12.2354 17.4281 12.3245 17.3984C12.5026 17.339 13.6189 17.2231 15.253 16.406C16.7945 15.6353 18.7181 15.3753 20.1691 15.2455ZM55.0123 16.56C52.3707 16.56 49.7413 17.7912 47.3388 19.1122C45.2985 20.234 43.6563 21.3001 42.3628 22.0407C42.0673 21.7451 41.8655 21.3039 41.5102 21.1225C40.6995 20.7086 39.8121 20.6457 39.0379 20.7775C37.4894 21.041 36.2672 21.9351 35.3822 22.8392C34.1569 24.0907 34.2344 25.7483 34.4554 26.877C34.5586 27.4037 34.6327 27.4592 34.7634 27.8123C34.2531 28.2273 33.679 28.6326 32.8044 29.6744C32.1947 30.4005 31.6083 31.1856 31.3786 32.2408C31.2637 32.7683 31.2638 33.4106 31.5354 34.0116C31.8071 34.6125 32.3244 35.0858 32.9013 35.3803C34.7578 36.328 36.5989 35.9221 37.6748 35.2235C38.2395 34.8569 38.2581 34.6911 38.5303 34.3595C38.6286 34.3781 38.655 34.3592 38.7584 34.408C39.0289 34.5355 39.2546 34.5236 39.2546 35.54C39.2546 37.258 40.2029 38.5893 41.322 39.6662C40.3167 39.249 39.517 38.7133 38.2138 38.4828C38.13 38.4679 38.0451 38.4602 37.96 38.46C37.96 38.46 36.1715 38.441 34.3556 39.4039C32.5397 40.3668 30.66 42.5581 30.66 46.1136C30.66 47.834 30.9092 49.0884 31.7636 49.9946C32.6179 50.9008 33.8697 50.9748 34.7121 50.8472C35.5545 50.7197 36.2584 50.4662 36.7139 50.3767C36.8502 50.3499 36.8795 50.3547 36.9477 50.351C37.2694 50.7565 37.6366 51.6879 37.7918 52.7977C37.9558 53.9709 37.96 55.2055 37.96 55.98C37.96 56.7546 37.9416 58.1863 38.1653 59.4333C38.2772 60.0568 38.2988 60.674 39.0493 61.3609C39.4246 61.7044 40.1749 61.9378 40.7431 61.8001C41.3114 61.6624 41.6487 61.3597 41.9408 61.0501C42.6711 60.276 43.7958 59.0893 44.7667 57.8535C45.2383 57.2533 45.6708 56.6424 46.0214 56.0228C46.0355 56.0825 46.0487 56.1447 46.0812 56.1853C46.4462 56.6409 47.6332 55.9109 48.0887 53.2653C48.5443 50.6198 47.4493 48.7934 46.8112 50.3453C46.8112 50.3453 46.4511 50.8706 46.2324 51.5145C46.2015 51.4188 46.152 51.2805 46.1326 51.198C45.9999 50.6352 45.9268 50.6323 46.3236 50.2113C47.7196 48.7302 47.8995 46.3543 46.7628 43.9436C46.3783 43.1283 45.5379 42.4214 44.7781 41.6966C45.6575 41.8368 46.7236 41.7091 47.4757 40.9409C47.5224 40.8932 47.5139 40.8519 47.5584 40.804C47.81 41.4538 48.0737 42.11 48.4281 42.6889C48.6409 43.0365 48.8713 43.3655 49.2066 43.6698C49.5418 43.9742 50.045 44.3 50.7207 44.3C51.1079 44.3 51.4793 44.1462 51.7531 43.8724C52.0269 43.5986 52.1807 43.2272 52.1807 42.84C52.1807 42.2154 52.2607 42.2826 52.3347 42.0558C52.5672 42.2646 52.5556 42.2826 52.8366 42.5121C53.3204 42.9073 53.857 43.3094 54.4306 43.6442C55.0043 43.9789 55.5865 44.3 56.441 44.3C57.2954 44.3 58.119 43.7363 58.4941 43.1138C58.8692 42.4912 58.9732 41.8444 58.9732 41.1975C58.9732 40.5413 58.8558 39.8646 58.6082 39.2128C59.3969 38.7184 60.0206 38.0689 60.302 37.3508C60.6553 36.4489 60.6061 35.7523 60.6242 35.0496C62.0287 34.5266 63.163 33.5201 63.6868 32.2721C64.1838 31.0879 64.1934 29.7868 63.7752 28.5851C64.2008 28.0773 64.7648 27.875 65.5574 27.875C66.5245 27.875 67.4081 28.163 67.4081 28.163C67.5932 28.2259 67.789 28.251 67.9839 28.2368C68.1789 28.2226 68.369 28.1694 68.543 28.0803C68.543 28.0803 70.0613 27.3282 71.329 26.2496C71.9628 25.7104 72.6162 25.1289 72.9059 24.0939C73.0507 23.5763 73.0284 22.8858 72.7262 22.3202C72.4241 21.7546 71.9362 21.3718 71.4031 21.0997C70.3371 20.5555 69.0378 20.3244 67.4993 20.1102C65.9609 19.896 64.2334 19.758 62.6003 19.6654C60.556 19.5494 59.8793 19.5646 58.745 19.5485C58.8251 18.8525 58.6616 17.9126 57.9694 17.3471C57.1911 16.7112 56.2504 16.56 55.0123 16.56ZM32.0173 16.5686C32.0717 16.7871 32.12 17.3344 32.12 18.02C32.12 18.75 32.1258 19.1875 31.8605 19.8507C31.5952 20.5139 31.0017 21.4538 29.6277 22.8278C29.469 22.9865 29.4375 22.982 29.2998 23.1101C29.4052 22.6016 29.565 22.0677 29.565 21.1225C29.565 20.4716 29.4318 19.6409 28.8122 18.9696C28.3112 18.4269 27.5328 18.2919 26.7648 18.2025C26.9919 17.9282 27.0022 17.9023 27.3123 17.5923C27.5261 17.3785 28.7909 16.8943 29.9528 16.7283C31.0596 16.5702 31.9285 16.5691 32.0173 16.5686ZM55.0123 19.48C55.5252 19.48 55.4761 19.5075 55.6397 19.5513C55.5214 19.7243 55.3973 19.9192 55.3973 19.9192C55.1964 20.1246 55.0607 20.3848 55.007 20.6671C54.9533 20.9494 54.9841 21.2412 55.0955 21.5061C55.2069 21.7709 55.394 21.997 55.6334 22.1561C55.8727 22.3151 56.1536 22.3999 56.441 22.4C56.441 22.4 59.2665 22.3999 62.435 22.5797C64.0192 22.6695 65.6865 22.8053 67.0973 23.0017C68.3745 23.1795 69.3265 23.4462 69.7948 23.6348C69.6839 23.7786 69.6744 23.8222 69.4355 24.0254C68.6855 24.6635 67.84 25.1051 67.5393 25.2687C67.0795 25.1392 66.6471 24.955 65.5574 24.955C64.0224 24.955 61.86 25.5341 60.8495 27.5984C60.7171 27.8693 60.6717 28.1745 60.7197 28.4722C60.7677 28.7699 60.9067 29.0454 61.1175 29.2609C61.1515 29.2955 61.3746 30.2314 60.9921 31.1429C60.6095 32.0544 59.9859 32.62 59.3011 32.62C58.9139 32.6201 58.5426 32.7739 58.2688 33.0477C57.995 33.3215 57.8411 33.6928 57.8411 34.08C57.8411 34.81 57.7972 35.7412 57.5844 36.2843C57.3717 36.8274 57.3742 37 56.441 37C56.1536 37.0001 55.8727 37.085 55.6334 37.244C55.394 37.403 55.2069 37.6291 55.0955 37.894C54.9841 38.1588 54.9533 38.4507 55.007 38.733C55.0607 39.0152 55.1964 39.2754 55.3973 39.4809C55.771 39.8627 56.0523 40.6633 56.0532 41.1947C55.968 41.1588 56.0041 41.183 55.902 41.1234C55.5374 40.9106 55.0943 40.5828 54.6844 40.248C53.8645 39.5783 53.193 38.8992 53.193 38.8992C53.0574 38.7605 52.8955 38.6503 52.7168 38.5749C52.5381 38.4995 52.3462 38.4604 52.1522 38.46C52.1522 38.46 51.7779 38.4732 51.4564 38.5826C51.135 38.6921 50.7417 38.9078 50.3928 39.2642C50.3135 39.3452 50.2769 39.4935 50.2046 39.5864C50.1794 39.5204 50.152 39.4818 50.1276 39.4153C49.6274 38.0538 49.2807 36.6521 49.2807 36.6521C49.1972 36.3037 48.9886 35.9982 48.6945 35.7937C48.4004 35.5891 48.0413 35.4998 47.6856 35.5428C47.33 35.5857 47.0025 35.7579 46.7656 36.0266C46.5286 36.2953 46.3987 36.6418 46.4006 37C46.4006 37 46.4144 37.0936 46.2951 37.4591C46.1791 37.8147 45.9362 38.3175 45.4225 38.8564C45.4014 38.8547 45.3486 38.8549 45.2058 38.8279C44.8976 38.7696 44.3834 38.5468 43.8969 38.192C42.924 37.4823 42.1746 36.2851 42.1746 35.54C42.1746 33.6364 41.0649 32.2676 40.0046 31.7674C38.9442 31.2672 37.94 31.3682 37.94 31.3682C37.7075 31.386 37.4826 31.4592 37.2841 31.5817C37.0857 31.7043 36.9195 31.8726 36.7994 32.0725C36.7994 32.0725 36.5396 32.4798 36.0865 32.774C35.6426 33.0623 35.2331 33.2646 34.2729 32.7911C34.3365 32.5837 34.6021 32.0723 35.04 31.5507C35.9658 30.448 37.3127 29.4006 37.3127 29.4006C37.5804 29.1952 37.7688 28.9035 37.8457 28.5749C37.9227 28.2464 37.8835 27.9013 37.7347 27.5984C37.7347 27.5984 37.4576 27.0144 37.3212 26.3181C37.1849 25.6217 37.2626 25.0894 37.4667 24.8809C38.011 24.3249 38.9321 23.759 39.5284 23.6576C39.8265 23.6068 40.0119 23.6352 40.1842 23.7232C40.3565 23.8111 40.5798 23.9875 40.8315 24.5016C40.9167 24.6758 41.0357 24.8313 41.1817 24.959C41.3276 25.0867 41.4975 25.184 41.6815 25.2453C41.8654 25.3067 42.0598 25.3307 42.2531 25.3161C42.4465 25.3015 42.635 25.2486 42.8077 25.1603C44.4133 24.3407 46.5003 22.9069 48.7446 21.6729C50.9889 20.4389 53.3645 19.48 55.0123 19.48ZM23.36 28.24C23.146 28.24 23.0396 28.4018 22.8496 28.4482C23.0624 28.2729 23.2992 28.24 23.36 28.24ZM37.8488 41.4085C41.7617 42.1427 43.4449 43.7503 44.1222 45.1869C44.8105 46.6466 44.2604 48.1416 44.1964 48.2095C43.1332 49.3376 43.0601 50.8821 43.2924 51.8681C43.5248 52.854 43.8 53.5409 43.8 53.8556C43.8 53.7834 43.7437 54.1224 43.5063 54.5485C43.2689 54.9747 42.8954 55.5078 42.4683 56.0513C41.9874 56.6635 41.4949 57.1697 40.977 57.7394C40.9413 57.0996 40.88 56.444 40.88 55.98C40.88 55.2055 40.8842 53.8304 40.6832 52.3928C40.4823 50.9551 40.1465 49.4027 39.0208 48.2095C38.5882 47.751 37.9818 47.5044 37.4752 47.4396C36.9686 47.3748 36.5374 47.4346 36.1493 47.5109C35.3729 47.6634 34.708 47.8955 34.2729 47.9614C33.8378 48.0273 33.9033 48.0032 33.8908 47.9899C33.8783 47.9767 33.58 47.4899 33.58 46.1136C33.58 43.4759 34.6203 42.57 35.7244 41.9846C36.7737 41.4281 37.7448 41.4116 37.8488 41.4085ZM21.0616 44.0576C20.7649 44.0465 20.4355 44.073 20.0864 44.1603C19.3881 44.3349 18.6194 44.8606 18.1673 45.6517C17.7153 46.4428 17.52 47.4228 17.52 48.68C17.52 51.0322 17.881 52.4011 18.4952 53.3224C18.5957 53.4731 18.7288 53.5195 18.8431 53.6417C18.7295 54.2168 18.5579 55.0622 18.2728 56.6302C18.0889 57.6416 17.9055 58.701 17.7652 59.6129C17.6249 60.5248 17.52 61.2117 17.52 61.82C17.52 63.0367 17.9753 64.1986 18.6407 65.3075C18.9733 65.8619 19.3661 66.3856 19.8725 66.8245C20.379 67.2635 21.0483 67.66 21.9 67.66C22.2042 67.66 22.5239 67.6367 22.8952 67.4775C23.2665 67.3184 23.6794 66.9443 23.859 66.5251C24.2183 65.6867 23.9554 65.1917 23.8334 64.8256C23.5893 64.0934 23.36 63.5234 23.36 63.28C23.36 61.82 23.2764 61.0482 24.3923 59.9323C25.4664 58.8582 26.4562 57.0677 27.4035 55.173C27.8772 54.2257 28.3033 53.28 28.624 52.4412C28.9447 51.6025 29.2 50.9917 29.2 50.14C29.2 48.8017 28.4397 48.3117 27.7885 47.7419C27.1373 47.172 26.3599 46.6444 25.5928 46.1649C24.0586 45.2061 22.553 44.454 22.553 44.454C22.553 44.454 21.9518 44.0912 21.0616 44.0576ZM59.86 44.3C59.86 44.3 56.94 45.76 58.4 47.22C59.86 48.68 62.78 45.76 64.24 47.22C65.7 48.68 65.7 50.14 67.16 50.14C68.62 50.14 65.7 45.76 64.24 45.76C62.78 45.76 59.86 44.3 59.86 44.3ZM20.7936 46.9948C20.857 46.9789 21.247 47.066 21.247 47.066C21.247 47.066 22.6614 47.774 24.0472 48.6401C24.7401 49.0732 25.4227 49.5493 25.8665 49.9376C26.0698 50.1154 26.1558 50.2842 26.2087 50.3739C26.1738 50.4927 26.1196 50.8176 25.8979 51.3976C25.6255 52.1101 25.2303 52.9893 24.7915 53.867C23.9138 55.6224 22.7136 57.4819 22.3277 57.8678C20.9187 59.2768 20.6468 60.8138 20.5569 62.1508C20.5423 62.072 20.44 61.8605 20.44 61.82C20.44 61.6984 20.5176 60.9252 20.651 60.0578C20.7845 59.1903 20.9661 58.151 21.1472 57.1549C21.5094 55.1627 21.8715 53.3452 21.8715 53.3452C21.94 53.0002 21.8816 52.642 21.7072 52.3366C21.5327 52.0312 21.2539 51.799 20.9219 51.6827C20.8036 51.5017 20.44 50.6945 20.44 48.68C20.44 47.7472 20.6097 47.2673 20.7052 47.1003C20.8006 46.9332 20.7619 47.0027 20.7936 46.9948ZM63.2391 51.0611C62.4056 51.0872 61.5276 51.3237 60.667 51.754C59.066 52.5545 57.6847 53.5425 56.7347 54.7567C55.7847 55.9709 55.2639 57.6736 55.9847 59.1852C56.4199 60.0968 57.2393 60.798 58.0949 61.0102C58.9505 61.2224 59.6949 61.0581 60.3134 60.8819C60.9319 60.7057 61.4635 60.4891 61.8561 60.3657C62.1161 60.284 62.2871 60.2765 62.3323 60.2659C62.3087 60.2675 62.5268 60.3806 62.8285 60.6908C63.1507 61.0222 63.5215 61.4806 63.9891 61.9227C64.4566 62.3647 65.113 62.9598 66.1933 62.8723C67.2436 62.7871 67.9481 61.981 68.4147 61.0815C69.5883 59.1198 69.1845 56.9125 68.4888 55.3783C68.4816 55.3611 68.4739 55.344 68.466 55.327C67.6925 53.78 66.8918 52.4383 65.5375 51.6257C64.8603 51.2194 64.0726 51.0349 63.2391 51.0611ZM63.279 53.9183C63.5865 53.8988 63.8022 53.9882 64.0375 54.1294C64.5023 54.4082 65.154 55.2589 65.8312 56.6017C66.2198 57.4737 66.3525 58.8795 65.9139 59.5987C65.8999 59.622 65.8866 59.6458 65.8739 59.6699C65.62 59.4127 65.3131 59.0575 64.9215 58.6548C64.4794 58.2002 63.9685 57.6703 63.0794 57.4229C62.2051 57.1799 61.547 57.4027 60.9835 57.5798C60.42 57.7568 59.9154 57.9582 59.5121 58.0731C59.1088 58.188 58.8446 58.187 58.7992 58.1757C58.7539 58.1645 58.7807 58.2592 58.6224 57.9276C58.4555 57.5777 58.4829 57.2592 59.033 56.556C59.5832 55.8529 60.6539 55.0256 61.973 54.366C62.5724 54.0663 62.9716 53.9379 63.279 53.9183Z" fill="#F8F8F6"/>
</svg>
