<svg width="71" height="71" viewBox="0 0 71 71" fill="none" xmlns="http://www.w3.org/2000/svg">
<path d="M15.62 2.84009L5.78259 7.05571H5.67997V7.10009V11.3601V14.7159C5.2809 14.4923 4.82779 14.3526 4.33763 14.3526C2.81113 14.3526 1.57251 15.5912 1.57251 17.1177C1.57251 18.6442 2.81113 19.8801 4.33763 19.8801C5.83834 19.8801 7.05083 18.6835 7.09165 17.1926H7.09997V10.7527L14.2 7.71024V11.79C13.7898 11.5603 13.3278 11.4391 12.8576 11.4377C12.1377 11.4569 11.4537 11.7563 10.9513 12.2723C10.4489 12.7882 10.1678 13.4799 10.1678 14.2001C10.1678 14.9202 10.4489 15.612 10.9513 16.1279C11.4537 16.6439 12.1377 16.9433 12.8576 16.9624C13.5897 16.9614 14.2914 16.67 14.8088 16.1521C15.3262 15.6342 15.6169 14.9321 15.6172 14.2001H15.62V7.10009V2.84009ZM61.06 2.84009V7.10009V11.8759C60.6609 11.6523 60.2078 11.5126 59.7176 11.5126C58.1911 11.5126 56.9525 12.7512 56.9525 14.2777C56.9525 15.8042 58.1911 17.0401 59.7176 17.0401C61.2441 17.0401 62.48 15.8042 62.48 14.2777C62.48 14.2511 62.4724 14.2265 62.4717 14.2001H62.48V7.38298L68.16 8.52009V4.26009L61.06 2.84009ZM35.5 4.26009C25.3337 4.26009 17.04 12.5538 17.04 22.7201V23.272C16.1678 24.2715 15.62 25.5598 15.62 26.9801V31.2401C15.62 34.3603 18.1798 36.9201 21.3 36.9201H22.8365C23.1146 38.7719 23.8923 40.3216 24.7529 41.4907C25.5647 42.5936 26.2942 43.087 26.98 43.5847V47.2179C26.5587 48.3068 25.515 49.2061 23.7961 50.0745C22.0174 50.9731 19.6793 51.7742 17.3118 52.798C14.9442 53.8218 12.5225 55.0783 10.5945 57.0386C8.6665 58.9989 7.29727 61.702 7.10274 65.2424C7.10111 65.2683 7.10019 65.2942 7.09997 65.3201V68.1601H9.93997V65.3867C10.1028 62.4735 11.1103 60.564 12.6191 59.0299C14.1302 57.4935 16.2081 56.3693 18.4378 55.405C20.6675 54.4408 23.0237 53.6456 25.0746 52.6094C27.1255 51.5733 28.9976 50.2234 29.7451 48.0277C29.795 47.8803 29.8203 47.7257 29.82 47.5701V43.0272C29.8202 42.7766 29.7541 42.5305 29.6284 42.3137C29.5027 42.097 29.322 41.9173 29.1044 41.793C28.8666 41.6571 27.8496 40.903 27.041 39.8045C26.2324 38.706 25.56 37.2672 25.56 35.5001V22.7201V22.7145C25.56 17.2085 29.9939 12.7745 35.5 12.7745C41.006 12.7745 45.44 17.2085 45.44 22.7145V35.5001C45.44 37.2672 44.7676 38.706 43.959 39.8045C43.1503 40.903 42.1333 41.6571 41.8955 41.793C41.678 41.9173 41.4972 42.097 41.3715 42.3137C41.2459 42.5305 41.1798 42.7766 41.18 43.0272V47.5701C41.1801 47.7436 41.2121 47.9156 41.2743 48.0776C42.1048 50.2463 43.9879 51.5789 46.0474 52.6122C48.1068 53.6455 50.4544 54.4418 52.6648 55.405C54.8752 56.3683 56.9243 57.487 58.4141 59.0216C59.9017 60.5539 60.8969 62.4683 61.06 65.3867V68.1601H63.9V65.3201C63.8998 65.2942 63.8988 65.2683 63.8972 65.2424C63.703 61.7072 62.3574 59.0063 60.4526 57.0441C58.5478 55.082 56.1505 53.8255 53.7991 52.8008C51.4478 51.7761 49.1171 50.9732 47.3204 50.0717C45.5949 49.206 44.5032 48.295 44.02 47.1901V43.5847C44.7057 43.087 45.4352 42.5936 46.247 41.4907C47.1076 40.3216 47.8853 38.7719 48.1635 36.9201H49.7C52.8202 36.9201 55.38 34.3603 55.38 31.2401V26.9801C55.38 25.5598 54.8321 24.2715 53.96 23.272V22.7201C53.96 12.5538 45.6662 4.26009 35.5 4.26009ZM35.5 7.10009C43.7095 7.10009 50.4281 13.4383 51.059 21.4859C50.6209 21.3764 50.1703 21.3001 49.7 21.3001H48.1968C47.4888 14.9216 42.0625 9.93454 35.5 9.93454C28.9374 9.93454 23.5112 14.9216 22.8032 21.3001H21.3C20.8296 21.3001 20.379 21.3764 19.941 21.4859C20.5719 13.4383 27.2904 7.10009 35.5 7.10009ZM21.3 24.1401H22.72V34.0801H21.3C19.7143 34.0801 18.46 32.8258 18.46 31.2401V26.9801C18.46 25.3944 19.7143 24.1401 21.3 24.1401ZM48.28 24.1401H49.7C51.2856 24.1401 52.54 25.3944 52.54 26.9801V31.2401C52.54 32.8258 51.2856 34.0801 49.7 34.0801H48.28V24.1401Z" fill="#F8F8F6"/>
</svg>
