<svg width="65" height="65" viewBox="0 0 65 65" fill="none" xmlns="http://www.w3.org/2000/svg">
<path d="M32.4999 1.30005C24.5959 1.30005 18.1999 7.69605 18.1999 15.6C18.1999 16.042 18.2247 16.471 18.2507 16.9L24.7024 15.5594C24.7024 15.5731 24.6999 15.5863 24.6999 15.6C24.6999 18.7416 25.311 21.3892 26.0177 23.4534C24.4534 23.6481 22.9942 24.5354 22.1507 25.995L17.6515 33.5106L15.4831 32.7209L15.8614 32.6499C16.1852 32.5926 16.4753 32.4147 16.6732 32.1522C16.8711 31.8896 16.9622 31.5617 16.9281 31.2347C16.894 30.9076 16.7372 30.6057 16.4893 30.3896C16.2415 30.1735 15.9209 30.0594 15.5923 30.0702C15.5189 30.0724 15.4459 30.0809 15.3739 30.0956L13.302 30.4916L9.57724 10.984C9.52971 10.7353 9.41057 10.5058 9.23446 10.3239L5.93622 6.91392C5.81529 6.78892 5.67051 6.68947 5.51045 6.62143C5.35039 6.55339 5.1783 6.51816 5.00438 6.51782C4.74644 6.51683 4.49403 6.59259 4.27926 6.73547C4.0645 6.87834 3.89709 7.08187 3.79833 7.32017L1.99052 11.7051C1.89332 11.9395 1.86684 12.1973 1.91435 12.4465L5.64169 31.9541L3.56981 32.3502C3.23109 32.4149 2.93193 32.6114 2.73813 32.8967C2.54433 33.1819 2.47177 33.5324 2.53642 33.8711C2.60106 34.2099 2.79762 34.509 3.08284 34.7028C3.36806 34.8966 3.71859 34.9692 4.05731 34.9045L5.51727 34.6252C5.51077 34.6431 5.50076 34.6581 5.49442 34.676C4.54415 37.3688 6.06948 40.241 8.62509 41.2928L17.9003 45.109C18.5443 45.3746 19.2183 45.5 19.8782 45.5C21.6878 45.5 23.4285 44.5474 24.38 42.9051L24.3825 42.9026L24.6237 42.4836L25.9288 47.9579C25.7459 48.3255 24.7225 50.3725 23.5116 53.0969C22.8544 54.5758 22.1959 56.1394 21.6911 57.5276C21.1862 58.9158 20.7999 60.0167 20.7999 61.1C20.7999 61.4448 20.9369 61.7755 21.1807 62.0192C21.4245 62.263 21.7551 62.4 22.0999 62.4H35.0999H45.1089C44.2249 61.659 43.3018 60.788 42.4048 59.8H35.0999H23.7554C23.8803 59.3115 23.8912 59.083 24.1337 58.4163C24.6039 57.1232 25.2454 55.5993 25.8882 54.1532C26.8938 51.8905 27.7212 50.1945 28.1124 49.4H36.8798C36.6978 48.568 36.5563 47.697 36.4913 46.8H28.3257L26.3985 38.6979C26.3383 38.4445 26.2034 38.215 26.0112 38.0392C25.819 37.8634 25.5785 37.7494 25.3207 37.7119C25.063 37.6744 24.7999 37.7152 24.5656 37.829C24.3313 37.9428 24.1366 38.1243 24.0067 38.35L22.1304 41.6026C21.6493 42.4329 20.7804 42.9 19.8782 42.9C19.545 42.9 19.2137 42.8368 18.8931 42.7045H18.8905L9.61532 38.8883H9.61278C8.25912 38.3301 7.4885 36.8318 7.94462 35.5393C8.45226 34.101 10.0031 33.4305 11.3901 33.9981C11.4061 34.0043 11.4222 34.0103 11.4384 34.0159L17.7683 36.3213C18.0523 36.4251 18.3636 36.4265 18.6486 36.3255C18.9336 36.2245 19.1745 36.0273 19.3298 35.7678L24.3901 27.3127C24.3935 27.3077 24.3969 27.3026 24.4003 27.2975C24.96 26.3291 26.029 25.8756 27.0587 26.0407C27.6849 27.3374 28.1911 28.0567 28.1911 28.0567C28.3813 28.3224 28.6645 28.5068 28.9844 28.5731C29.3044 28.6395 29.6375 28.5829 29.9177 28.4147L36.1079 24.7H39.2995C40.2875 24.7 41.236 24.9852 42.029 25.4922C42.445 24.6862 43.1464 24.0507 44.0044 23.6997C42.8814 22.8409 41.5207 22.3147 40.0815 22.1661C40.2229 21.954 40.2989 21.705 40.2999 21.45V16.9711L46.5663 18.2C46.7223 17.355 46.7999 16.484 46.7999 15.6C46.7999 7.69605 40.4039 1.30005 32.4999 1.30005ZM32.4999 3.90005C38.7789 3.90005 43.9142 8.86554 44.1872 15.0795L40.1806 14.3026C39.5572 10.6247 36.349 7.80005 32.4999 7.80005C29.1943 7.80005 26.3617 9.88489 25.2306 12.802L20.9548 13.6881C21.8778 8.13713 26.7019 3.90005 32.4999 3.90005ZM5.44618 10.1487L7.09403 11.8524L10.7477 30.9791L8.19345 31.4667L4.54227 12.3399L5.44618 10.1487ZM32.4999 10.4C35.3864 10.4 37.6999 12.7136 37.6999 15.6V20.7137L29.7628 25.477C29.3211 24.7521 28.5194 23.3021 27.9499 21.0616L30.621 19.2817C30.8598 19.1275 31.0415 18.8994 31.1383 18.6322C31.2351 18.3649 31.2417 18.0733 31.157 17.802C31.0723 17.5307 30.901 17.2946 30.6694 17.1299C30.4378 16.9651 30.1586 16.8808 29.8745 16.8899C29.6255 16.8978 29.384 16.9772 29.1788 17.1184L27.4599 18.2661C27.368 17.4404 27.2999 16.5701 27.2999 15.6C27.2999 12.7136 29.6134 10.4 32.4999 10.4ZM45.4999 26C45.1551 26.0001 44.8245 26.1371 44.5807 26.3808C44.3369 26.6246 44.1999 26.9553 44.1999 27.3C44.1999 29.2552 43.3508 29.8919 42.3515 30.3571C41.3521 30.8223 40.2999 30.842 40.2999 30.842C39.9551 30.8421 39.6245 30.979 39.3807 31.2228C39.1369 31.4666 38.9999 31.7973 38.9999 32.142V44.9084C38.9999 57.5233 51.4286 63.568 51.4286 63.568C51.603 63.6534 51.7944 63.6987 51.9886 63.7004C52.1828 63.7022 52.3749 63.6604 52.5509 63.5782C52.5509 63.5782 64.9999 57.7767 64.9999 44.9084V32.142C64.9999 31.7973 64.8629 31.4666 64.6191 31.2228C64.3753 30.979 64.0447 30.8421 63.6999 30.842C63.6999 30.842 62.6477 30.8223 61.6483 30.3571C60.6489 29.8919 59.7999 29.2552 59.7999 27.3C59.7999 26.9553 59.6629 26.6246 59.4191 26.3808C59.1753 26.1371 58.8447 26.0001 58.4999 26H45.4999ZM46.4013 28.6H57.5985C58.0738 30.6205 59.2473 32.1088 60.5515 32.7159C61.4912 33.1533 61.7991 33.0731 62.3999 33.1424V44.9084C62.3999 55.1685 53.5325 60.1175 52.0126 60.8995C50.5032 60.0853 41.5999 54.9098 41.5999 44.9084V33.1424C42.2007 33.0731 42.5086 33.1534 43.4483 32.7159C44.7525 32.1088 45.9259 30.6205 46.4013 28.6Z" fill="#F3F4F6"/>
</svg>
