<svg width="72" height="72" viewBox="0 0 72 72" fill="none" xmlns="http://www.w3.org/2000/svg">
<g clip-path="url(#clip0_0_192)">
<path d="M29.8801 0C29.2332 0 28.5638 0.0393751 27.8551 0.09C25.0145 0.286875 21.6395 0.916875 17.6851 2.25C9.70883 4.98375 5.25383 8.47688 2.83508 11.385C1.6257 12.8363 0.945078 14.1131 0.540078 15.075C0.135078 16.0369 7.81193e-05 16.785 7.81193e-05 16.785L-0.0449219 17.145L0.0900781 17.46C7.39695 39.5269 18.6976 46.9575 26.0101 49.275C25.5995 53.4319 25.8863 56.9925 26.5501 59.94C28.2544 67.5225 32.4451 71.235 32.4451 71.235L32.7151 71.415L32.9851 71.505C32.9851 71.505 38.402 73.1025 45.8551 70.605C53.3082 68.1075 62.9044 61.5881 71.8201 45.945L72.0001 45.63V45.315C72.0001 45.315 72.0282 44.5725 71.8201 43.56C71.6119 42.5475 71.1563 41.1413 70.2451 39.51C68.4226 36.2419 64.7326 32.0513 57.4201 27.99C52.2732 25.1044 47.9982 23.7881 44.5951 23.31C44.3476 17.7806 43.2844 11.2331 40.6801 3.69L40.5451 3.375L40.3201 3.15C40.3201 3.15 39.7801 2.64375 38.8801 2.115C37.9801 1.58625 36.6582 0.9675 34.8301 0.54C33.4576 0.219375 31.8151 0 29.8801 0ZM29.8801 2.88C31.6013 2.88 33.0019 3.06 34.1551 3.33C35.6907 3.69 36.7763 4.20188 37.4401 4.59C37.8957 4.86 37.9238 4.91062 38.0251 4.995C40.3876 11.9475 41.4451 17.9888 41.7151 23.085C41.4226 23.085 41.1301 23.0738 40.8601 23.085C38.9701 23.1525 37.5301 23.5125 36.5401 23.85C35.5501 24.1875 34.9201 24.57 34.9201 24.57L34.6501 24.75L34.4701 25.065C33.3676 27.0169 32.4057 28.9125 31.5451 30.735C30.3357 30.7969 28.9407 30.9713 27.3601 31.455H27.3151C21.482 33.5025 19.5301 38.07 19.5301 38.07C19.232 38.8181 19.592 39.6619 20.3401 39.96C21.0882 40.2581 21.932 39.8981 22.2301 39.15C22.2301 39.15 23.4282 35.8988 28.2151 34.2C28.232 34.1944 28.2432 34.2056 28.2601 34.2C28.9351 33.9919 29.5595 33.8906 30.1501 33.795C28.2038 38.4244 27.0001 42.615 26.3701 46.35C19.9182 44.1563 9.87758 37.4738 2.97008 16.965C2.99258 16.8581 2.96445 16.7456 3.19508 16.2C3.4932 15.4856 4.06133 14.4563 5.08508 13.23C7.12695 10.7775 11.042 7.54313 18.5851 4.95C18.602 4.94438 18.6132 4.95563 18.6301 4.95C23.2988 3.38625 27.0113 2.87438 29.8801 2.88ZM27.9451 17.73C26.8482 17.7638 26.0551 17.865 26.0551 17.865C26.0551 17.865 27.7819 22.1569 31.0951 22.59C33.4013 22.8769 36.7201 19.17 36.7201 19.17C36.7201 19.17 34.4138 18.1519 31.6801 17.865C30.4538 17.7188 29.042 17.6963 27.9451 17.73ZM20.1601 19.71C20.1601 19.71 17.432 21.4481 15.7051 23.175C13.6913 25.1888 12.5101 27.225 12.5101 27.225C12.5101 27.225 17.4038 28.3669 18.9901 26.64C21.2963 24.1931 20.1601 19.71 20.1601 19.71ZM40.9951 25.965C44.1957 25.8469 49.1569 26.6569 56.0251 30.51C62.9663 34.3688 66.1951 38.16 67.7251 40.905C68.4901 42.2775 68.8332 43.4025 68.9851 44.145C69.0919 44.6513 69.0751 44.6906 69.0751 44.82C60.4913 59.715 51.6319 65.6213 44.9551 67.86C38.5763 69.9975 34.5826 68.9288 34.1551 68.805C33.8513 68.535 30.8476 65.8013 29.3851 59.31C28.7438 56.4638 28.4738 52.9369 28.9801 48.69C29.0701 48.4594 29.1038 48.2119 29.0701 47.97C29.6551 43.7569 31.0163 38.8125 33.5701 33.165C33.5869 33.1369 33.6038 33.1031 33.6151 33.075C33.6207 33.0581 33.6544 33.0469 33.6601 33.03C33.8288 32.8219 33.9413 32.5744 33.9751 32.31C34.7907 30.5606 35.7076 28.755 36.7651 26.865C36.8776 26.8031 36.9451 26.73 37.4851 26.55C38.2276 26.2969 39.3919 26.0213 40.9951 25.965ZM41.3551 36.9C38.8857 36.8606 36.1351 38.025 36.1351 38.025C36.1351 38.025 38.4413 39.4369 41.1751 40.59C43.7682 41.7431 46.6651 42.75 46.6651 42.75C46.6651 42.75 45.8101 38.7338 43.6501 37.44C43.0032 37.08 42.1763 36.9113 41.3551 36.9ZM53.5951 44.1C51.9301 44.2069 50.4001 44.775 50.4001 44.775L54.9901 48.51C57.4369 50.2369 59.8951 51.39 59.8951 51.39C59.8951 51.39 59.0232 46.08 56.4301 44.64C55.6201 44.1563 54.5963 44.0381 53.5951 44.1ZM35.0551 44.505C34.4813 44.595 34.0201 45.0225 33.8851 45.585C33.8851 45.585 33.1313 48.6 33.2101 52.155C33.2888 55.71 34.2001 60.1538 38.0251 62.325C41.8557 64.5019 46.1194 62.9831 49.2301 61.2C52.3407 59.4169 54.5851 57.195 54.5851 57.195C54.9619 56.8238 55.1026 56.2725 54.9507 55.7663C54.7988 55.26 54.3826 54.8719 53.8651 54.765C53.8651 54.765 47.0476 53.2125 44.0101 51.57C41.0344 49.9556 36.3601 44.955 36.3601 44.955C36.0282 44.595 35.5388 44.4206 35.0551 44.505ZM36.4051 49.14C38.0813 50.805 40.2976 52.8525 42.6601 54.135C45.0507 55.4288 47.9982 56.25 50.3101 56.835C49.4607 57.5438 49.2244 57.9038 47.7901 58.725C45.0676 60.2888 41.9682 61.2281 39.4651 59.805C36.9507 58.3763 36.1576 55.215 36.0901 52.11C36.0563 50.5181 36.2419 50.2144 36.4051 49.14Z" fill="#F3F4F6"/>
</g>
<defs>
<clipPath id="clip0_0_192">
<rect width="72" height="72" fill="white"/>
</clipPath>
</defs>
</svg>
