<svg width="30" height="30" viewBox="0 0 30 30" fill="none" xmlns="http://www.w3.org/2000/svg">
<path d="M6.5625 5C4.33004 5 2.5 6.83004 2.5 9.0625V20.9375C2.5 23.17 4.33004 25 6.5625 25H23.4375C25.67 25 27.5 23.17 27.5 20.9375V9.0625C27.5 6.83004 25.67 5 23.4375 5H6.5625ZM6.5625 6.875H23.4375C24.6563 6.875 25.625 7.84371 25.625 9.0625V9.75342L15 15.4968L4.375 9.75342V9.0625C4.375 7.84371 5.34371 6.875 6.5625 6.875ZM4.375 11.8848L14.5544 17.3877C14.6913 17.4616 14.8444 17.5003 15 17.5003C15.1556 17.5003 15.3087 17.4616 15.4456 17.3877L25.625 11.8848V20.9375C25.625 22.1563 24.6563 23.125 23.4375 23.125H6.5625C5.34371 23.125 4.375 22.1563 4.375 20.9375V11.8848Z" fill="#F8F8F6"/>
</svg>
