<svg width="38" height="38" viewBox="0 0 38 38" fill="none" xmlns="http://www.w3.org/2000/svg">
<path d="M19 33.7981C18.5262 33.7867 18.1265 33.5868 17.8582 33.25C15.4147 30.3612 11.8122 27.9005 8.72358 25.1202C5.63493 22.3398 2.9231 19.04 2.9231 14.6154C2.9231 12.0006 3.81372 9.72265 5.43511 8.1298C7.05651 6.53695 9.35158 5.66345 11.875 5.66345C14.3756 5.66345 16.4309 7.02794 17.8582 8.26682C18.5604 8.87199 18.6004 9.03755 19 9.49999C19.4054 9.03755 19.4396 8.87199 20.1418 8.26682C21.5748 7.02794 23.6244 5.66345 26.125 5.66345C28.6485 5.66345 30.8979 6.53695 32.5192 8.1298C34.1406 9.72265 35.0769 12.0006 35.0769 14.6154C35.0769 19.04 32.3651 22.3398 29.2765 25.1202C26.1878 27.9005 22.5854 30.3612 20.1418 33.25C19.8735 33.5868 19.4739 33.7867 19.0457 33.7981H19Z" fill="#4A7EEE"/>
</svg>
