<svg width="61" height="61" viewBox="0 0 61 61" fill="none" xmlns="http://www.w3.org/2000/svg">
<path d="M22.8749 2.75327C11.786 2.75327 2.75317 11.7861 2.75317 22.875C2.75317 33.9639 11.786 42.9967 22.8749 42.9967C27.6754 42.9967 32.0866 41.3002 35.5504 38.4806L49.6871 56.1897C49.6871 56.1897 52.7835 56.6499 54.7059 54.6465C56.6417 52.6277 56.1877 49.6909 56.1877 49.6909L38.4805 35.5504C41.3001 32.0867 42.9966 27.6755 42.9966 22.875C42.9966 11.7861 33.9638 2.75327 22.8749 2.75327ZM22.8749 6.77798C31.7891 6.77798 38.9719 13.9609 38.9719 22.875C38.9719 31.7891 31.7891 38.972 22.8749 38.972C13.9608 38.972 6.77789 31.7891 6.77789 22.875C6.77789 13.9609 13.9608 6.77798 22.8749 6.77798Z" fill="white"/>
</svg>
