<svg width="71" height="71" viewBox="0 0 71 71" fill="none" xmlns="http://www.w3.org/2000/svg">
<g clip-path="url(#clip0_0_199)">
<path d="M18.46 0C12.9852 0 8.51997 4.46523 8.51997 9.94C8.51997 15.4148 12.9852 19.88 18.46 19.88C23.9347 19.88 28.4 15.4148 28.4 9.94C28.4 4.46523 23.9347 0 18.46 0ZM52.54 0C49.1564 0 46.1278 1.70289 44.3306 4.30437C44.2696 4.33211 44.2086 4.35984 44.1531 4.39313C42.5778 5.06984 40.5143 6.10711 38.7837 8.07625C37.0531 10.0454 35.7274 12.9242 35.5 16.9513C35.4778 17.3451 35.6165 17.7278 35.8827 18.0107C36.1545 18.2991 36.5261 18.46 36.92 18.46H42.6C43.3821 18.46 44.02 17.8221 44.02 17.04C44.02 16.3411 44.0366 15.7476 44.0643 15.1319C45.8172 17.9774 48.9678 19.88 52.54 19.88C56.1122 19.88 59.2628 17.9774 61.0156 15.1319C61.0433 15.7476 61.06 16.3411 61.06 17.04C61.06 17.8221 61.6979 18.46 62.48 18.46H68.16C68.5538 18.46 68.9254 18.2991 69.1972 18.0107C69.4635 17.7278 69.6022 17.3451 69.58 16.9513C69.3526 12.9242 68.0268 10.0454 66.2962 8.07625C64.5656 6.10711 62.5022 5.06984 60.9268 4.39313C60.8714 4.37648 60.8104 4.35984 60.7493 4.34875C58.9577 1.73062 55.9402 0 52.54 0ZM18.46 2.84C22.3983 2.84 25.56 6.00172 25.56 9.94C25.56 13.8783 22.3983 17.04 18.46 17.04C14.5217 17.04 11.36 13.8783 11.36 9.94C11.36 6.00172 14.5217 2.84 18.46 2.84ZM52.54 2.84C56.4783 2.84 59.64 6.00172 59.64 9.94C59.64 13.8783 56.4783 17.04 52.54 17.04C48.6017 17.04 45.44 13.8783 45.44 9.94C45.44 6.00172 48.6017 2.84 52.54 2.84ZM41.9787 9.0525C41.6071 10.6389 41.3575 12.7689 41.2687 15.62H38.6506C39.05 13.0962 39.821 11.188 40.9137 9.94C41.2354 9.57391 41.6293 9.34648 41.9787 9.0525ZM63.1012 9.0525C63.4507 9.34648 63.8445 9.57391 64.1662 9.94C65.259 11.188 66.03 13.0962 66.4294 15.62H63.8112C63.7225 12.7689 63.4729 10.6389 63.1012 9.0525ZM13.3568 21.1669C9.16341 21.1669 5.32497 23.9625 4.30434 28.045L0.0443426 44.6412C0.0443426 44.669 0.0443426 44.7023 0.0443426 44.73C-0.37722 46.8489 0.887468 48.8402 2.79559 49.4781C2.85106 49.4948 2.91208 49.5114 2.97309 49.5225C4.97551 49.9219 7.20536 48.8125 7.72122 46.6825H7.76559L8.51997 43.8869V50.8537C8.50887 50.9425 8.50887 51.0312 8.51997 51.12C8.51997 51.1644 8.51997 51.2087 8.51997 51.2531V66.74C8.51997 69.0752 10.4447 71 12.78 71C15.1152 71 17.04 69.0752 17.04 66.74V52.54H19.88V66.74C19.88 69.0752 21.8047 71 24.14 71C26.4752 71 28.4 69.0752 28.4 66.74V51.3419C28.4055 51.2698 28.4055 51.1921 28.4 51.12C28.4 51.0756 28.4 51.0312 28.4 50.9869V44.2862L29.0212 46.6381C29.4816 48.4741 31.0791 49.7 32.9262 49.7C33.0704 49.7 33.7139 49.933 34.5237 49.1231L34.435 49.0344C34.7179 48.9068 34.9897 48.7237 35.2337 48.5462C35.6553 48.9567 36.1767 49.2951 36.7868 49.4781C37.164 49.5891 37.5523 49.6501 37.9406 49.6556L37.5856 50.6319C37.4247 51.0645 37.4913 51.5527 37.752 51.9298C38.0182 52.3126 38.4509 52.54 38.9168 52.54H45.44V66.74C45.44 69.0752 47.3647 71 49.7 71C50.7872 71 51.7856 70.5729 52.54 69.8906C53.2943 70.5729 54.2928 71 55.38 71C57.7152 71 59.64 69.0752 59.64 66.74V52.54H66.1631C66.629 52.54 67.0617 52.3126 67.3279 51.9298C67.5886 51.5527 67.6552 51.0645 67.4943 50.6319L67.1394 49.7C67.4167 49.6723 67.7717 49.578 68.16 49.4338V49.4781C68.2154 49.4615 68.2376 49.406 68.2931 49.3894C68.3264 49.3727 68.3486 49.406 68.3819 49.3894V49.345C70.4286 48.5684 71.2718 46.3053 70.645 44.4194C70.645 44.4027 70.645 44.3916 70.645 44.375L64.0775 27.2019C62.724 23.6408 59.224 21.3 55.38 21.3H49.5668C45.7229 21.3 42.1784 23.6408 40.825 27.2019L35.7218 40.6475L32.4825 28.045C31.4729 23.9958 27.7399 21.1669 23.43 21.1669H13.3568ZM13.3568 24.0069H23.43C26.5029 24.0069 29.0379 25.9871 29.7312 28.755L33.9912 45.3512C33.9912 45.379 33.9912 45.4123 33.9912 45.44C34.1909 46.1112 33.8692 46.5993 33.2368 46.7269C33.1259 46.7602 33.0261 46.8045 32.9262 46.86C32.4991 46.86 31.8834 46.3608 31.7725 45.9281L28.3556 32.8819C28.1781 32.1885 27.5125 31.7337 26.8025 31.828C26.0925 31.9167 25.56 32.5213 25.56 33.2369V39.76H11.36V33.2369C11.3877 32.5102 10.8608 31.8834 10.1397 31.7836C9.42411 31.6782 8.74184 32.133 8.56434 32.8375L5.01434 45.9281C5.01434 45.9559 5.01434 45.9891 5.01434 46.0169C4.89786 46.6048 4.37645 46.8434 3.63872 46.7269C3.06184 46.4939 2.68466 46.0113 2.79559 45.3512C2.79559 45.3346 2.79005 45.3235 2.79559 45.3069L7.05559 28.755C7.73786 26.0204 10.4503 24.0069 13.3568 24.0069ZM49.5668 24.14H55.38C58.0702 24.14 60.4997 25.7708 61.415 28.1781L67.9381 45.3069C68.1322 45.8948 67.9215 46.5882 67.3168 46.7712C67.2392 46.7934 67.1671 46.8267 67.095 46.86C67.1504 46.8323 67.156 46.86 66.8731 46.86C66.568 46.86 66.0355 46.5105 65.8081 46.0612C65.797 46.0391 65.7748 46.0391 65.7637 46.0169L65.4975 45.3512C65.4864 45.3069 65.4697 45.2625 65.4531 45.2181L60.9712 33.5475C60.6772 32.8098 59.8452 32.4548 59.1075 32.7487C58.3697 33.0427 58.0147 33.8748 58.3087 34.6125L62.7906 46.1056C62.7961 46.1944 62.8128 46.2831 62.835 46.3719L64.1218 49.7H40.9581L42.245 46.3719C42.2838 46.272 42.3171 46.1666 42.3337 46.0612L46.7712 34.6125C47.0652 33.8748 46.7102 33.0427 45.9725 32.7487C45.2347 32.4548 44.4027 32.8098 44.1087 33.5475L39.2718 46.0612C38.9557 46.8434 38.4675 47.0209 37.63 46.7712C36.9976 46.5827 36.7036 45.9226 36.92 45.44C36.9366 45.4234 36.9477 45.4123 36.9643 45.3956L43.4875 28.1781C44.4027 25.7708 46.8766 24.14 49.5668 24.14ZM11.36 42.6H25.56V49.7H11.36V42.6ZM11.36 52.54H14.2V66.74C14.2 67.5277 13.5676 68.16 12.78 68.16C11.9923 68.16 11.36 67.5277 11.36 66.74V52.54ZM22.72 52.54H25.56V66.74C25.56 67.5277 24.9276 68.16 24.14 68.16C23.3523 68.16 22.72 67.5277 22.72 66.74V52.54ZM48.28 52.54H51.12V66.74C51.12 67.5277 50.4876 68.16 49.7 68.16C48.9123 68.16 48.28 67.5277 48.28 66.74V52.54ZM53.96 52.54H56.8V66.74C56.8 67.5277 56.1676 68.16 55.38 68.16C54.5923 68.16 53.96 67.5277 53.96 66.74V52.54Z" fill="#F3F4F6"/>
</g>
<defs>
<clipPath id="clip0_0_199">
<rect width="71" height="71" fill="white"/>
</clipPath>
</defs>
</svg>
