<svg width="38" height="38" viewBox="0 0 38 38" fill="none" xmlns="http://www.w3.org/2000/svg">
<path d="M11.875 5.66345C9.35158 5.66345 7.05651 6.53695 5.43511 8.1298C3.81372 9.72265 2.9231 12.0006 2.9231 14.6154C2.9231 19.04 5.63493 22.3398 8.72358 25.1202C11.8122 27.9005 15.4147 30.3612 17.8582 33.25C18.1265 33.5868 18.5262 33.7867 18.9543 33.7981H19.0457C19.4739 33.7867 19.8735 33.5868 20.1418 33.25C22.5854 30.3612 26.1878 27.9005 29.2765 25.1202C32.3651 22.3398 35.0769 19.04 35.0769 14.6154C35.0769 12.0006 34.1406 9.72265 32.5192 8.1298C30.8979 6.53695 28.6485 5.66345 26.125 5.66345C23.6244 5.66345 21.5748 7.02794 20.1418 8.26682C19.4396 8.87199 19.4054 9.03755 19 9.49999C18.6004 9.03755 18.5604 8.87199 17.8582 8.26682C16.4309 7.02794 14.3756 5.66345 11.875 5.66345ZM11.875 8.58653C13.2509 8.58653 14.7867 9.5057 15.9399 10.5048C17.0932 11.5039 17.8125 12.4687 17.8125 12.4687C18.0866 12.8513 18.5319 13.0796 19 13.0796C19.4682 13.0796 19.9135 12.8513 20.1875 12.4687C20.1875 12.4687 20.9012 11.5039 22.0601 10.5048C23.2191 9.5057 24.7434 8.58653 26.125 8.58653C28.0033 8.58653 29.482 9.22595 30.5096 10.2308C31.5373 11.2356 32.1539 12.6571 32.1539 14.6154C32.1539 17.8525 30.1956 20.3302 27.3125 22.9279C24.7605 25.2287 21.6433 27.5865 19 30.3726C16.351 27.5751 13.2452 25.2287 10.6875 22.9279C7.80441 20.3302 5.84617 17.8525 5.84617 14.6154C5.84617 12.6571 6.46276 11.2356 7.4904 10.2308C8.51805 9.22595 9.991 8.58653 11.875 8.58653Z" fill="#4A7EEE"/>
</svg>
