<svg width="44" height="44" viewBox="0 0 44 44" fill="none" xmlns="http://www.w3.org/2000/svg">
<path d="M38.5 33.9167C38.5 36.4485 36.4485 38.5 33.9167 38.5H10.0833C7.55242 38.5 5.5 36.4485 5.5 33.9167V10.0833C5.5 7.5515 7.55242 5.5 10.0833 5.5H33.9167C36.4485 5.5 38.5 7.5515 38.5 10.0833V33.9167Z" fill="#3F51B5"/>
<path d="M31.5039 22.917H28.4166V34.8337H23.8333V22.917H21.0833V19.2503H23.8333V17.0412C23.8351 13.8255 25.1707 11.917 28.9593 11.917H32.0833V15.5837H29.9868C28.5119 15.5837 28.4166 16.1337 28.4166 17.1631V19.2503H32.0833L31.5039 22.917Z" fill="white"/>
</svg>
