<svg width="50" height="50" viewBox="0 0 50 50" fill="none" xmlns="http://www.w3.org/2000/svg">
<path d="M45.4282 20.9201H43.7501V20.8337H25.0001V29.167H36.774C35.0563 34.018 30.4407 37.5003 25.0001 37.5003C18.097 37.5003 12.5001 31.9035 12.5001 25.0003C12.5001 18.0972 18.097 12.5003 25.0001 12.5003C28.1865 12.5003 31.0855 13.7024 33.2928 15.6659L39.1855 9.77324C35.4647 6.30553 30.4876 4.16699 25.0001 4.16699C13.4949 4.16699 4.16675 13.4951 4.16675 25.0003C4.16675 36.5055 13.4949 45.8337 25.0001 45.8337C36.5053 45.8337 45.8334 36.5055 45.8334 25.0003C45.8334 23.6034 45.6897 22.2399 45.4282 20.9201Z" fill="#FFC107"/>
<path d="M6.56885 15.3034L13.4136 20.3232C15.2657 15.7378 19.7511 12.5003 25.0001 12.5003C28.1866 12.5003 31.0855 13.7024 33.2928 15.6659L39.1855 9.77324C35.4647 6.30553 30.4876 4.16699 25.0001 4.16699C16.998 4.16699 10.0584 8.6847 6.56885 15.3034Z" fill="#FF3D00"/>
<path d="M25 45.8331C30.3812 45.8331 35.2708 43.7737 38.9677 40.4247L32.5198 34.9685C30.4281 36.5529 27.8281 37.4997 25 37.4997C19.5812 37.4997 14.9802 34.0445 13.2469 29.2227L6.45312 34.457C9.90104 41.2039 16.9031 45.8331 25 45.8331Z" fill="#4CAF50"/>
<path d="M45.4281 20.9195H43.75V20.833H25V29.1663H36.774C35.949 31.4965 34.45 33.5059 32.5167 34.9695L32.5198 34.9674L38.9677 40.4236C38.5115 40.8382 45.8333 35.4163 45.8333 24.9997C45.8333 23.6028 45.6896 22.2393 45.4281 20.9195Z" fill="#1976D2"/>
</svg>
