<svg width="94" height="94" viewBox="0 0 94 94" fill="none" xmlns="http://www.w3.org/2000/svg">
<path d="M60.6428 11.28C60.5437 11.2773 60.4463 11.3061 60.3645 11.3621C60.2828 11.4182 60.2208 11.4987 60.1875 11.5921L56.2237 22.7344L45.5441 17.658C45.4565 17.6165 45.3581 17.6031 45.2626 17.6196C45.1671 17.6362 45.079 17.6818 45.0104 17.7504C44.9419 17.819 44.8962 17.907 44.8796 18.0026C44.8631 18.0981 44.8765 18.1964 44.918 18.2841L49.9944 28.9637L38.8521 32.9275C38.7609 32.9602 38.6821 33.0202 38.6263 33.0994C38.5706 33.1786 38.5407 33.2731 38.5407 33.37C38.5407 33.4668 38.5706 33.5613 38.6263 33.6405C38.6821 33.7197 38.7609 33.7797 38.8521 33.8124L49.1921 37.4898C49.2507 37.5129 49.3134 37.5241 49.3764 37.5225C49.4395 37.5209 49.5015 37.5067 49.5589 37.4806C49.6163 37.4545 49.6679 37.4172 49.7106 37.3708C49.7533 37.3244 49.7862 37.2699 49.8074 37.2106C49.8286 37.1512 49.8376 37.0882 49.8339 37.0252C49.8302 36.9623 49.814 36.9007 49.786 36.8442C49.7581 36.7877 49.719 36.7374 49.6713 36.6963C49.6235 36.6552 49.5679 36.6241 49.5079 36.6049L40.4126 33.37L50.8004 29.676C50.8622 29.6539 50.9188 29.6191 50.9663 29.5738C51.0139 29.5284 51.0514 29.4736 51.0765 29.4129C51.1016 29.3522 51.1137 29.2869 51.112 29.2212C51.1102 29.1556 51.0948 29.091 51.0666 29.0316L46.3372 19.0772L56.2917 23.8066C56.351 23.8348 56.4156 23.8502 56.4813 23.8519C56.5469 23.8536 56.6122 23.8416 56.673 23.8165C56.7337 23.7914 56.7885 23.7539 56.8338 23.7063C56.8791 23.6587 56.9139 23.6022 56.9361 23.5403L60.63 13.1526L64.3239 23.5403C64.346 23.6022 64.3809 23.6587 64.4262 23.7063C64.4715 23.7539 64.5263 23.7914 64.587 23.8165C64.6477 23.8416 64.713 23.8536 64.7787 23.8519C64.8444 23.8502 64.909 23.8348 64.9683 23.8066L74.9228 19.0772L70.1934 29.0316C70.1652 29.091 70.1497 29.1556 70.148 29.2212C70.1463 29.2869 70.1584 29.3522 70.1835 29.4129C70.2085 29.4736 70.2461 29.5284 70.2936 29.5738C70.3412 29.6191 70.3977 29.6539 70.4596 29.676L80.8473 33.37L70.4596 37.0639C70.3977 37.086 70.3412 37.1208 70.2936 37.1662C70.2461 37.2115 70.2085 37.2663 70.1835 37.327C70.1584 37.3877 70.1463 37.453 70.148 37.5187C70.1497 37.5844 70.1652 37.6489 70.1934 37.7083L74.9228 47.6627L64.9683 42.9334C64.909 42.9051 64.8444 42.8897 64.7787 42.888C64.713 42.8863 64.6477 42.8983 64.587 42.9234C64.5263 42.9485 64.4715 42.986 64.4262 43.0336C64.3809 43.0812 64.346 43.1377 64.3239 43.1996L60.63 53.5873L57.3951 44.4921C57.3759 44.432 57.3448 44.3765 57.3036 44.3287C57.2625 44.2809 57.2122 44.2419 57.1557 44.2139C57.0992 44.186 57.0376 44.1697 56.9747 44.166C56.9118 44.1624 56.8488 44.1714 56.7894 44.1926C56.73 44.2138 56.6755 44.2467 56.6291 44.2893C56.5827 44.332 56.5454 44.3836 56.5193 44.441C56.4933 44.4984 56.479 44.5605 56.4775 44.6235C56.4759 44.6865 56.487 44.7492 56.5101 44.8078L60.1875 55.1478C60.2202 55.239 60.2803 55.3178 60.3595 55.3736C60.4387 55.4293 60.5331 55.4592 60.63 55.4592C60.7268 55.4592 60.8213 55.4293 60.9005 55.3736C60.9797 55.3178 61.0398 55.239 61.0724 55.1478L65.0362 44.0055L75.7159 49.0819C75.8035 49.1234 75.9018 49.1368 75.9974 49.1203C76.0929 49.1038 76.181 49.0581 76.2495 48.9895C76.3181 48.921 76.3638 48.8329 76.3803 48.7373C76.3969 48.6418 76.3835 48.5435 76.3419 48.4559L71.2656 37.7762L82.4079 33.8124C82.499 33.7797 82.5779 33.7197 82.6336 33.6405C82.6893 33.5613 82.7193 33.4668 82.7193 33.37C82.7193 33.2731 82.6893 33.1786 82.6336 33.0994C82.5779 33.0202 82.499 32.9602 82.4079 32.9275L71.2656 28.9637L76.3419 18.2841C76.3835 18.1964 76.3969 18.0981 76.3803 18.0026C76.3638 17.907 76.3181 17.819 76.2495 17.7504C76.181 17.6818 76.0929 17.6362 75.9974 17.6196C75.9018 17.6031 75.8035 17.6165 75.7159 17.658L65.0362 22.7344L61.0724 11.5921C61.0406 11.5028 60.9826 11.4252 60.9059 11.3695C60.8293 11.3138 60.7376 11.2826 60.6428 11.28ZM60.977 30.0855C60.2235 30.0785 59.4668 30.3536 58.8877 30.9116L36.0449 52.8841C35.6787 52.7306 35.2876 52.6502 34.8956 52.651C34.3898 52.652 33.9517 52.9681 33.5022 53.2256C33.3757 53.2232 33.2499 53.2463 33.1326 53.2937C33.0152 53.341 32.9086 53.4115 32.8192 53.501C32.1511 54.1691 31.8854 55.0892 32.0022 55.9667L14.6085 73.3622C14.4773 73.3446 14.346 73.3254 14.2138 73.3255C13.4611 73.3258 12.7079 73.6105 12.1392 74.1792V74.181C11.0018 75.3184 11.0018 77.191 12.1392 78.3284L15.6715 81.8607C16.809 82.9982 18.6815 82.9982 19.8189 81.8607L19.8208 81.8589C20.4893 81.1903 20.7552 80.2694 20.6378 79.3914L38.0296 61.9977C38.8442 62.1072 39.6878 61.8747 40.341 61.3074C40.3981 61.271 40.451 61.2285 40.4989 61.1807C40.4995 61.1807 40.5001 61.1807 40.5008 61.1807C41.3672 60.3143 41.5695 59.0229 41.1158 57.9532L63.0883 35.1123C64.204 33.9542 64.1873 32.0896 63.0497 30.952V30.9502H63.0479C62.4795 30.3818 61.7299 30.0924 60.977 30.0855ZM60.9586 31.9544C61.2325 31.9569 61.5052 32.0656 61.7187 32.2794L61.7205 32.2812C62.149 32.7097 62.1554 33.3726 61.7352 33.8087C61.7346 33.8087 61.734 33.8087 61.7334 33.8087L39.9371 56.4679L37.532 54.0628L60.1912 32.2666C60.1912 32.2659 60.1912 32.2653 60.1912 32.2647C60.4091 32.0547 60.6847 31.952 60.9586 31.9544ZM34.8975 54.5163C35.1634 54.5154 35.4296 54.6206 35.6392 54.8302L39.1715 58.3626C39.5908 58.7818 39.5908 59.4305 39.1715 59.8497C39.1709 59.8503 39.1703 59.8509 39.1697 59.8515C38.7505 60.2707 38.1 60.2707 37.6808 59.8515L34.1484 56.3192C33.7339 55.9047 33.7358 55.2663 34.1411 54.8468C34.146 54.8425 34.1509 54.8382 34.1558 54.8339C34.3667 54.623 34.6316 54.5171 34.8975 54.5163ZM32.9 57.7292L36.2708 61.0981V61.1L19.74 77.6307L16.3692 74.26L32.9 57.7292ZM57.8008 58.28C57.7091 58.2817 57.6198 58.3103 57.5442 58.3622C57.4685 58.4141 57.4096 58.4869 57.3749 58.5719L55.8051 62.3851L51.9919 63.9548C51.9055 63.9902 51.8315 64.0504 51.7795 64.1279C51.7275 64.2054 51.6997 64.2966 51.6997 64.39C51.6997 64.4833 51.7275 64.5745 51.7795 64.652C51.8315 64.7295 51.9055 64.7898 51.9919 64.8251L55.8051 66.3948L57.3749 70.208C57.4102 70.2945 57.4704 70.3684 57.5479 70.4204C57.6254 70.4725 57.7166 70.5003 57.81 70.5003C57.9033 70.5003 57.9946 70.4725 58.0721 70.4204C58.1495 70.3684 58.2098 70.2945 58.2451 70.208L59.8148 66.3948L63.6281 64.8251C63.7145 64.7898 63.7884 64.7295 63.8405 64.652C63.8925 64.5745 63.9203 64.4833 63.9203 64.39C63.9203 64.2966 63.8925 64.2054 63.8405 64.1279C63.7884 64.0504 63.7145 63.9902 63.6281 63.9548L59.8148 62.3851L58.2451 58.5719C58.2092 58.4841 58.1475 58.4092 58.0682 58.3571C57.9889 58.305 57.8957 58.2781 57.8008 58.28ZM57.81 59.9855L59.0199 62.923C59.0435 62.9808 59.0784 63.0333 59.1225 63.0774C59.1667 63.1215 59.2191 63.1564 59.2769 63.1801L62.2144 64.39L59.2769 65.5998C59.2191 65.6235 59.1667 65.6584 59.1225 65.7025C59.0784 65.7466 59.0435 65.7991 59.0199 65.8569L57.81 68.7944L56.6001 65.8569C56.5765 65.7991 56.5416 65.7466 56.4974 65.7025C56.4533 65.6584 56.4008 65.6235 56.3431 65.5998L53.4056 64.39L56.3431 63.1801C56.4008 63.1564 56.4533 63.1215 56.4974 63.0774C56.5416 63.0333 56.5765 62.9808 56.6001 62.923L57.81 59.9855ZM72.8408 64.86C72.7491 64.8617 72.6598 64.8903 72.5842 64.9422C72.5085 64.9941 72.4496 65.067 72.4149 65.1519L70.0226 70.9626L64.2119 73.3548C64.1255 73.3901 64.0515 73.4504 63.9995 73.5279C63.9475 73.6054 63.9197 73.6966 63.9197 73.79C63.9197 73.8833 63.9475 73.9745 63.9995 74.052C64.0515 74.1295 64.1255 74.1898 64.2119 74.2251L70.0226 76.6173L72.4149 82.428C72.4502 82.5145 72.5104 82.5884 72.5879 82.6404C72.6654 82.6925 72.7566 82.7203 72.85 82.7203C72.9433 82.7203 73.0346 82.6925 73.1121 82.6404C73.1895 82.5884 73.2498 82.5145 73.2851 82.428L75.6773 76.6173L81.4881 74.2251C81.5745 74.1898 81.6484 74.1295 81.7005 74.052C81.7525 73.9745 81.7803 73.8833 81.7803 73.79C81.7803 73.6966 81.7525 73.6054 81.7005 73.5279C81.6484 73.4504 81.5745 73.3901 81.4881 73.3548L75.6773 70.9626L73.2851 65.1519C73.2492 65.0641 73.1875 64.9892 73.1082 64.9371C73.0289 64.885 72.9357 64.8581 72.8408 64.86ZM72.85 66.5655L74.8824 71.5005C74.906 71.5583 74.9409 71.6108 74.985 71.6549C75.0292 71.699 75.0816 71.7339 75.1394 71.7576L80.0744 73.79L75.1394 75.8223C75.0816 75.846 75.0292 75.8809 74.985 75.925C74.9409 75.9691 74.906 76.0216 74.8824 76.0794L72.85 81.0144L70.8176 76.0794C70.794 76.0216 70.7591 75.9691 70.7149 75.925C70.6708 75.8809 70.6183 75.846 70.5606 75.8223L65.6256 73.79L70.5606 71.7576C70.6183 71.7339 70.6708 71.699 70.7149 71.6549C70.7591 71.6108 70.794 71.5583 70.8176 71.5005L72.85 66.5655ZM14.2138 75.1944C14.4815 75.1943 14.7499 75.299 14.9592 75.5084L18.4915 79.0407C18.9108 79.46 18.9108 80.1105 18.4915 80.5297L18.4897 80.5315C18.0705 80.9507 17.42 80.9507 17.0008 80.5315L13.4684 76.9992C13.0492 76.5799 13.0492 75.9295 13.4684 75.5102H13.4703C13.6799 75.3006 13.9461 75.1946 14.2138 75.1944Z" fill="#F9FAFB"/>
</svg>
